<?xml version="1.0" encoding="UTF-8"?><svg id="Capa_2" xmlns="http://www.w3.org/2000/svg" viewBox="0 0 72.2 103.24"><defs><style>.cls-1{fill:#72a598;}.cls-2{fill:#c2e0db;}</style></defs><g id="Capa_1-2"><path class="cls-1" d="M1.44,103.24c-1.03-5.1-.31-9.85,2.7-14.19,1.29-1.86,1.63-3.95,1.3-6.19-1.27-8.58-1.3-17.22-1.35-25.86-.01-2.06-.75-3.53-2.13-5.14-3.29-3.85-2.22-4.86,1.57-8.18,2.16-1.88,2.56-6.19,3.01-9.5,.52-3.83,.23-7.77,.28-11.66,.12-.52,.24-1.04,.37-1.56-.06-2.45-.11-4.91-.17-7.36,3.4-.07,6.9-3.59,10.28,.5,.52,.63,2.11-.8,2.42-2.16h-.03c1.2,.19,2.16-.09,2.64-1.33l-.04,.02c4.26,.06,8.49-.03,12.17-2.65,2.83-2.37,3.87-6.44,7.57-8,3.91,1.58,6.16,4.14,4.42,8.53-.9,2.27-.32,4.17,.53,6.22,1.98,4.8,4.29,9.53,5.67,14.5,2.16,7.73,5.81,12.45,14.84,11.4,4.15-.48,5.65,2.46,4.13,6.5-1.83,4.86-3.68,9.7-5.41,14.59-.8,2.27-2.36,3.36-4.55,4.15-4.88,1.76-9.72,3.68-14.48,5.74-5.26,2.28-7.03,7.59-3.42,11.85,3.06,3.61-.25,4.25-1.77,5.92-2.33-.11-4.66-.35-6.99-.28-2.01,.06-4.5-.92-5.86,1.3-2.03,3.3-3.74,6.79-5.58,10.21l.04-.03c-1.64-.14-3.03,1.39-4.89,.38-4.57-2.51-8.43-.38-12.12,2.26l.05-.03c-1.74,0-3.47,.02-5.21,.03Z"/><path class="cls-2" d="M40.29,91.7c-5.04-.54-9.97-1.14-12.13,5.31-.6,1.79-1.82,4-4.59,3.62,1.84-3.41,3.55-6.91,5.58-10.21,1.36-2.22,3.85-1.23,5.86-1.3,2.32-.07,4.66,.17,6.99,.28-.57,.77-1.14,1.53-1.71,2.3Z"/></g></svg>