<?xml version="1.0" encoding="UTF-8"?><svg id="Capa_2" xmlns="http://www.w3.org/2000/svg" viewBox="0 0 42.92 38.05"><defs><style>.cls-1{fill:#72a598;}.cls-2{fill:#c2e0db;}</style></defs><g id="Capa_1-2"><path class="cls-1" d="M31.18,10.45c1.74,2.49,3.88,3.13,6.52,1.38,5.5,.84,4.23,5.72,5.07,9.05,.91,3.62-2.39,4-4.87,4.45-3.75,.68-4.55,2.9-4.45,6.41,.06,2.11,1.94,5.39-2.13,6.3-1.83-.69-3.65-2.54-5.47,.01-4.63-1.63-9.46-1.22-14.23-1.44l.02,.03c-.11-.77-.42-1.35-1.32-1.33h.02c-1.4-4.6-4.63,.47-6.58-1.24-1.25-4.74-2.5-9.48-3.75-14.22,2.42-.28,4.29-1.08,3.81-4.07,0,0-.03,.03-.03,.03,1.19-.56,2.4-1.1,2.63-2.62,0,0-.02,.02-.02,.02,7.17-1.25,.84-6.38,2.64-9.18,0,0-.03,.04-.03,.04,.88-.02,1.2-.6,1.34-1.35,0,0-.04,.05-.04,.05C11.69,1.23,12.97-.55,15.49,.16c0,0-.02-.04-.02-.04-.18,1.53-.11,2.98,1.34,3.96,0,0-.04-.06-.04-.06,.06,2.65,1.81,3.49,4.07,3.98,3.46,.74,6.9,1.63,10.34,2.45Z"/><path class="cls-2" d="M10.33,35.32c-2.09,.52-4.18,1.04-6.28,1.56-.1-.93-.2-1.87-.31-2.8,1.95,1.7,5.18-3.36,6.58,1.24Z"/></g></svg>