<?xml version="1.0" encoding="UTF-8"?><svg id="Capa_2" xmlns="http://www.w3.org/2000/svg" viewBox="0 0 28.21 30.04"><defs><style>.cls-1{fill:#72a598;}.cls-2{fill:#c2e0db;}</style></defs><g id="Capa_1-2"><path class="cls-1" d="M1.05,28.36C-.77,22.48-.97,17.66,6.59,15.37c4.01-1.22,1.64-5.71,2.45-8.64C9.67,4.41,7.17,.6,11.81,.05c3.98-.47,5.01,2.42,5.93,5.48,.72,2.41,1.1,5.17,4.59,5.4,1.56,.11,2.12,1.43,1.88,2.86-.58,3.37,1.36,5.74,3.07,8.23-1.56,3.25-3.48,6.47-7.7,5.16-6.42-1.99-12.4-.11-18.51,1.17Z"/><path class="cls-2" d="M1.05,28.36c6.11-1.29,12.09-3.17,18.51-1.17,4.22,1.31,6.14-1.91,7.7-5.16,.32,.88,.63,1.75,.95,2.63-1.55,4.21-3.8,6.04-8.8,4.47-6.07-1.9-12.34,.01-18.49,.92,.05-.56,.09-1.12,.14-1.68Z"/></g></svg>