<?xml version="1.0" encoding="UTF-8"?><svg id="Capa_2" xmlns="http://www.w3.org/2000/svg" viewBox="0 0 54.42 84.98"><defs><style>.cls-1{fill:#79d2c0;}.cls-2{fill:#c2e0db;}</style></defs><g id="Capa_1-2"><path class="cls-1" d="M51.61,.31c.8,3.8,1.67,7.58,2.38,11.39,.27,1.46,.77,3.92,.13,4.33-5.55,3.55-2.57,7.7-1.14,11.74,1.58,4.46,1.53,7.82-4.62,7.49-2.7-.14-3.17,1.58-3.11,3.78,.07,2.38-.2,4.79,.14,7.12,.9,6.15-.54,10.91-6.66,13.71-3.77,1.72-4.2,5.7-5.37,9.17-1.39,4.14-1.25,9.2-6.7,11.02-1.33,.44-.83,2.29-.91,3.55-1.58,1.08-3.36,1.38-5.23,1.34l.03,.02c-.52-1.17-1.47-1.48-2.65-1.34l.04,.03c.08-1.15-.01-2.21-1.34-2.66l.03,.04c.03-1.11,.06-2.23-1.33-2.63l.02,.02c-2.73-2.4-5.34-4.17-6.49,1.3l.03-.02-7.64-1.5s-.06-.02-.06-.02c-.07-.81-.13-1.62-.2-2.42,3.92-11.84,7.8-23.5,5.49-36.51-1.55-8.76,4.02-16.56,6.29-24.82,1.53-1.31,3.99-.76,5.22-2.65,0,0-.05,.03-.05,.03,4.37,.34,8.64-2.53,13.19-.07,1.49,.81,3.23-.64,3.81-2.56,0,0-.04,.03-.04,.03,2.77,.39,3.99-1.82,4.59-3.62C41.63-.83,46.56-.23,51.61,.31Z"/><path class="cls-2" d="M8.87,79.74c-.12,2.75-2.35,2.25-4.02,2.61,0,0,.07,.04,.07,.04-.21-1.02-1.03-1.22-1.87-1.4-1.61-.25-1.93-1.36-1.83-2.75,2.55,.5,5.1,1,7.65,1.49Z"/><path class="cls-2" d="M.96,75.8c.07,.81,.13,1.62,.2,2.42-1.71-.67-1.32-1.52-.2-2.42Z"/></g></svg>