<?xml version="1.0" encoding="UTF-8"?><svg id="Capa_2" xmlns="http://www.w3.org/2000/svg" viewBox="0 0 63.81 114.93"><defs><style>.cls-1{fill:#80b8cb;}.cls-2{fill:#c2e0db;}.cls-3{fill:#fbfbfb;}</style></defs><g id="Capa_1-2"><path class="cls-1" d="M33.91,114.93c-3.15-3.92-7.13-6.77-11.62-8.94-.04-3.8-1.35-7.38-3.34-10.36-2.36-3.53-.2-5.95,.89-8.77-4.92,0-3.53-2.65-3.07-5.87,.49-3.5,2.6-5.41,4.77-7.35,2.74-2.45,1.58-4.15-.11-6.54-1.93-2.74-3.09-2.57-5.38-.35-3.03,2.94-3.94-.94-5.22-2.4-2.79-3.17-5.05-5.37-5.71,1.14-.16,1.62-1,2.27-2.51,2.27-2.06,0-2.22-1.44-2.5-3.05-.79-4.52,2.72-6.45,5.18-9.05,2.26-2.39,5.52-3.62,3.1-8.71-2.25-4.75,3.37-3.1,5.78-3.89,.75,.74,1.38,1.9,2.27,2.16,7.4,2.22,10.36,6.29,9.18,13.2,4.93-3.18,5.92-7.46,4.23-12.63-.03-.79-.07-1.58-.1-2.38-.31-.5-.63-1-.94-1.49,4.52-5.33,6.19-11.36,4.09-18.12-1.28-4.1,2.06-5.38,3.83-7.93,2.05-2.96-5.59-3.65-3.29-6.91,2.01-2.85,3.76-5.44,3.84-8.95,6.4-.27,11.05,3.71,16.1,6.7,.62,.59,1.84,1.27,1.76,1.75-.93,5.87,1.5,8.64,7.39,8.97,1.59,.09,1.34,1.97,1.1,3.24-.3,1.62-1.11,2.86-2.99,2.82-1.95-.05-3.91-.1-5.85-.29-1.63-.15-3.71-1.34-4.08,1.4-.28,2.12,.65,3.84,3.11,4.16,1.08,.14,2.2,.12,3.22,.44,5.02,1.53,6.06,5.88,2.12,9.33-2.18,1.91-2.44,3.38-1.82,6.51,1.29,6.55,.04,13.37-.97,20.01-1.1,7.25-6.05,12.88-8.61,19.53-.39,1-1.15,2.52-.75,3.05,3.88,5.11,.79,9.86-.13,14.92-1.17,6.48-5.64,11.37-12.98,12.37Zm1.01-25.38c-.43-2.2-2.04-4.45-4.04-3.81-1.8,.58-5.36,1.4-4.89,4.21,.46,2.73,3.6,3.67,6.13,3.98,3.09,.37,1.66-2.85,2.8-4.38Z"/><path class="cls-2" d="M29.85,45.8c1.69,5.18,.7,9.45-4.23,12.63,1.19-6.9-1.78-10.97-9.18-13.2-.89-.27-1.52-1.42-2.27-2.16-.24-.6-.48-1.2-.72-1.79,7.44-2.01,2.09-8.34,4-12.39,1.69-3.58-1.74-6.49-4.61-8.61-1.76-2.79,6.82,.2,2.32-4.45-.82-.85,8.74-8.94,10.34-8.39,1.22,.42,3.9,1.3,2.26,2.85-6.59,6.23-.88,11.86,.38,17.68,.51,2.32,1.05,4.35-2.22,4.76-.44-.87-1.21-1.06-2.07-.89-.16,.03-.25,.45-.37,.69,.81,.07,1.63,.14,2.44,.22,.29,4.66-4.83,10.94,3.92,13.06Z"/><path class="cls-1" d="M15.86,103.37c-3.95,0-8.04-1.28-11.71,1.26-1.89-6.73,.32-12.58,3.9-18.13,1.08-.02,2.16-.03,3.24-.05-1.24,6.38,7.31,10.12,4.57,16.91Z"/><path class="cls-2" d="M11.29,86.45c-1.08,.02-2.16,.03-3.24,.05-1.22-1.12-2.44-2.23-3.66-3.35,2.57,.38,3.72-4.42,6.31-1.84,1.16,1.15,3.65,3.09,.59,5.15Z"/><path class="cls-2" d="M28.81,41.93c.31,.5,.63,1,.94,1.49-.31-.5-.63-1-.94-1.49Z"/><path class="cls-3" d="M34.92,89.55c-1.14,1.53,.29,4.75-2.8,4.38-2.53-.3-5.67-1.25-6.13-3.98-.47-2.81,3.09-3.62,4.89-4.21,2-.65,3.61,1.61,4.04,3.81Z"/><path class="cls-1" d="M25.93,32.74c-.81-.07-1.63-.14-2.44-.22,.12-.24,.21-.66,.37-.69,.86-.17,1.63,.02,2.07,.89,0,0,0,.02,0,.02Z"/></g></svg>