<?xml version="1.0" encoding="UTF-8"?><svg id="Capa_2" xmlns="http://www.w3.org/2000/svg" viewBox="0 0 41.71 50.38"><defs><style>.cls-1{fill:#79d2c0;}.cls-2{fill:#c2e0db;}</style></defs><g id="Capa_1-2"><path class="cls-1" d="M41.7,11.82c.09,9.9-1.39,19.79-.03,29.69,.22,1.63-.48,2.93-1.3,4.22-2.64,1.76-4.78,1.11-6.52-1.38-.05-1.93-1.17-2.49-2.94-2.57-4.17-.2-7.84-2-11.47-3.86l.04,.06c.09-1.5,.38-3.07-1.34-3.96l.02,.04c-.08-1.96-1.17-2.86-2.96-2.22-2.22,.79-2.45,2.78-2.23,4.84l.04-.05c-.45,.45-.89,.9-1.34,1.35l.03-.04c-3.81,2.22,.15,6.67-2.64,9.18l.02-.02c-1.78-.03-2.76,.74-2.63,2.62l.03-.03c-.97-.06-1.99,1.67-2.92-.08,.93-4.8,.96-9.37-2.37-13.49C-.4,34.15,.17,31.57,.02,29.22c-.23-3.69,1.19-4.69,4.61-3.28,4.95,2.05,6.64,.14,7.28-5.02,.91-7.34,1.84-14.89,6.97-20.92,0,0-.04,.04-.04,.04,.92,.88,1.93,1.57,3.31,1.34l-.03-.04c.07,2.02-.78,4.57,2.19,5.17,2.21,.45,4.38,.2,4.33-2.96,5.02,1.72,9.35,4.51,13.08,8.27Z"/><path class="cls-2" d="M18.16,34.05c-2.53-.71-3.8,1.07-5.19,2.61-.22-2.06,0-4.05,2.23-4.84,1.79-.64,2.89,.26,2.96,2.22Z"/></g></svg>