<?xml version="1.0" encoding="UTF-8"?><svg id="Capa_2" xmlns="http://www.w3.org/2000/svg" viewBox="0 0 30.95 65.22"><defs><style>.cls-1{fill:#72a598;}.cls-2{fill:#c2e0db;}</style></defs><g id="Capa_1-2"><path class="cls-1" d="M27.54,7.56c2.08,4.38,1.9,9.26,3.14,13.83,.36,1.32,.58,2.83-.81,3.46-7.85,3.6-5.02,13.8-11.56,18.53-1.53,1.11-1.61,6.17,.69,8.49,3.23,3.26,2.41,6.18,.56,9.44-2.61-2.18-5.22-4.51-7.86-.04h0c-2.91-.38-5.48,2.62-8.52,.84-.94-8.84-1.48-17.74-2.92-26.49-1.41-8.53,3.07-15.07,6.28-22.04,1.6-3.47,2.04-6.46-.08-9.67,1.67-.36,3.9,.14,4.02-2.61,0,0-.03,.02-.03,.02C12.39-.27,14.77,.41,16.94,.02,16.94,.02,16.93,0,16.93,0c-.05,1.12,.16,2.12,1.33,2.63,0,0-.03-.04-.03-.04-.12,1.17,.18,2.13,1.34,2.66,0,0-.04-.03-.04-.03,.46,1.29,1.42,1.57,2.65,1.34,0,0-.03-.02-.03-.02,1.37,2.57,3.52,1.04,5.39,1.03Z"/><path class="cls-2" d="M11.71,61.27c-.95,4.57-5.73,1.58-7.79,3.95-1.07-.84-1.22-1.89-.73-3.1,3.05,1.78,5.62-1.22,8.53-.84Z"/></g></svg>