<?xml version="1.0" encoding="UTF-8"?><svg id="Capa_2" xmlns="http://www.w3.org/2000/svg" viewBox="0 0 37.45 25.52"><defs><style>.cls-1{fill:#79d2c0;}.cls-2{fill:#c2e0db;}</style></defs><g id="Capa_1-2"><path class="cls-1" d="M30.01,2.74c1.82-2.55,3.65-.7,5.47-.01,.42,1.15,2.59,1.55,1.79,3.08-3.31,6.31-5.78,13.25-6.02,17.57-5.15,1.28-10.37-3.49-15.49,.19,0,0,.04-.02,.04-.02-5.42,.41-10.47-1.31-15.56-2.74-.68-4.21-.11-7.7,4.09-10.18,3.23-1.9,2.39-6.11,3.9-9.07C10.32,1.04,12.41,.53,14.5,0c0,0-.02,0-.02,0,.44,.44,.88,.89,1.32,1.33,0,0-.02-.03-.02-.03,4.31,4.78,9.32,2.62,14.23,1.44Z"/><path class="cls-2" d="M.24,20.81c5.1,1.43,10.14,3.16,15.56,2.74-1.34,3.16-3.71,1.6-5.93,1.49-3.14-.15-6.03-2.39-9.31-1.08-.11-1.05-.22-2.1-.33-3.16Z"/></g></svg>