<?xml version="1.0" encoding="UTF-8"?><svg id="Capa_2" xmlns="http://www.w3.org/2000/svg" viewBox="0 0 36.96 71.7"><defs><style>.cls-1{fill:#72a598;}</style></defs><g id="Capa_1-2"><path class="cls-1" d="M34.69,71.7c-5.06-2.99-9.7-6.97-16.1-6.7-3.82-.97-4.55-3.31-2.15-6.16,4.12-4.89,5.2-10.28,3.83-16.38-1.35-6.03,3.19-8.39,8.11-11.55-4.37-1.03-7.21-2.58-3.79-6.72,1.25-1.51,.19-2.89-1-3.94-1.49-1.33-2.76-.55-3.95,.59-.91,.87-1.79,2.24-2.85,2.43-4.92,.88-5.52,3.31-3.19,7.29,1.38,2.36,1.9,4.46-.77,6.76-3.45,2.97-1.88,7.65-.8,10.57,2.09,5.62-2.91,6.42-4.9,8.94-.91,1.14-4.03-.04-5.89-1.45-1.89-1.44-1.22-2.9-.48-4.57,3.09-6.93-.21-14.84,3.11-21.66,2.08-4.27-.54-7.43-1.21-11.18-1.02-5.67-.1-11.69,0-17.56,3.28-1.31,6.17,.92,9.31,1.08,2.23,.11,4.6,1.67,5.93-1.49l-.04,.02c5.08,.56,10.17,1.13,15.25,1.69,.12,6.72,.22,13.44,.35,20.15,.04,2.15-.43,4.43,1.03,6.29,1.95,2.49,1.19,4.01-1.22,5.76-2.73,1.98-4.53,20.25-1.92,21.17,6.56,2.32,.34,9.57,5.46,12.23,.73,.38-1.09,2.98-2.1,4.38Z"/></g></svg>