<?xml version="1.0" encoding="UTF-8"?><svg id="Capa_2" xmlns="http://www.w3.org/2000/svg" viewBox="0 0 120.48 143.9"><defs><style>.cls-1{fill:#72a598;}.cls-2{fill:#c2e0db;}.cls-3{fill:#8bb7b3;}.cls-4{fill:#fbfbfb;}</style></defs><g id="Capa_1-2"><path class="cls-1" d="M94.45,139.12c.12,1.27,.23,2.53,.43,4.77-4.86-3.65-10.1-5.96-10.29-12.15-.23-7.69-4.1-5.45-8.37-3.5-.02,2.16,5.41,2.06,2.4,4.94-1.73,1.66-4.22,.95-5.77-.98-2.07-2.57-5.14-2.73-8.44-3.36,3.08-4.08,6.27-.02,9.89-1.17-1.53-3.49-4.42-3.6-7.23-3.83-2.14-.17-4.48,.2-6.36-.57-1.85-.76-3.3-2.76-.04-4.01,2.95-1.13,6.56-2.16,4.07-6.15-2.4-3.85-5.31-.33-7.88,.61-1.15,.42-2.09,1.43-3.17,2.21-1.1-5.14-5.88-6.95-10.17-4.01-.46,.31-1.27,.91-1.38,.81-3.36-3.28-8.81-4.85-9.12-10.59-.05-.84,1.27-2.15-.18-2.53-10.58-2.74,.37-3.58,.54-5.5-2.66-3.52-9.1-2.16-10.24-7.67,2.66,.84,5.32,1.67,7.98,2.51,3.7,3.38,8.5,4.09,13.06,5.33,1.42,.39,2.63,.06,2.64-1.76,0-.91-.47-2.05-1.41-1.66-5.1,2.16-6.7-3.83-10.58-4.37,.65-2.03,2.73-2.48,4.1-3.7,1.91,.03,4.44-.72,5.62,.22,4.88,3.9,7.68,.23,10.86-3.2-5.48,.48-10.96,.96-16.44,1.45-2.4,.47-4.04-.39-4.87-2.74-.76-2.17-2.4-2.7-4.49-2.33-2.73-.71-3.3-2.11-1.37-4.3q5.57-.31,4.5-5.7c-2.01,.49-3.17,1.98-4.34,3.46-2.94-.79-4.59-3.98-7.83-4.22l.04,.04c-.09-1.45-.18-2.89-.27-4.34-.08-.33-.05-.65,.09-.96,.44,.06,.88,.12,1.31,.18,2.14,1.78,1.29-.94,1.99-1.33,.36-.13,.64-.35,.84-.67,1.53-1.76,3.49-3.39,2.38-6.07-.06-.15,.75-5.94-3.47-1.24-3.13,3.48-7.09-.3-8.31-4.84,.83-1.48,3.05-2.01,2.87-4.18h0c1.74-3.44,4.91-7.55-3.01-6.6-1.43-1.64-3.17-3.05-3.74-5.3,.29-1.09,4.34-1.58,.58-3.28-1.95-.88-4-1.88-6.07-2.06-4.3-.37-5.18-3.35-5.33-6.6-.18-4.07,3.39-1.9,5.2-2.73,.71-.32,1.34-.81,2.96-1.82-3.34-.95-5.69-1.24-7.58-3.83-2.51-3.44,.19-5.56,.27-8.25C5.01-.95,9.1,.32,13.05,.32c2.28,.55,2.76,5.49,6.43,2.63,4.5,2.17,8.47,5.02,11.62,8.94,1.23,9.63-1.57,19.77,4.66,28.8,2.17,3.15,3.3,4.2,6.89,2.36,5.87-3,7.77-1.53,7.39,5.23-.08,1.5-.57,2.98-.91,4.46-2,8.88,3.18,15.35,12.48,15.56,6.08,.14,12.17,.13,18.24,.46,5.02,.27,8.17,2.66,8.66,8.16,.3,3.33,2.86,5.86,6,5.55,4.48-.44,4.41,1.78,4.41,4.9-.03,11.73,.2,23.47,.06,35.2-.05,3.88,.68,6.11,5.17,6.14,3.88,.03,7.77,.76,11.64,1.29,2.37,.32,5.14,.59,4.62,4.05-.47,3.17-2.87,2.43-5.08,2.18-3.01-.34-6.09-.18-8.09-3.2-.85-1.28-2.21-1.22-3.39-.24-.88,.72-.49,1.44,.03,2.23,1.1,1.69,3.94,3.66,1.79,5.41-2.19,1.77-5.37,.92-7.72-1.18-.64-.57-1.42-.99-2.14-1.47-.52-.5-.76-1.82-1.75-.96-.3,.27,.24,1.5,.39,2.29Zm-26.21-20.19c11.18-2.2,2.14-11.65,7.74-17.31-2.48,14.33,6.73,14.83,16.19,15.83-1.21-2.96-3.69-3.52-5.7-4.68-4.4-2.53-4.73-6.34-.79-9.7,1.15-.98,2.49-1.74,3.7-2.65,.84-.63,1.89-1.3,1.24-2.59-.51-1.01-1.36-1.66-2.64-1.41-1.7,.33-3.52,.36-5.1,1-4.75,1.93-6.28-.96-5.88-4.56,.34-3.02,.3-7.37,5.64-7.11,2.19,.11,3.01-2.07,2.71-3.66-.35-1.86-1.9-2.46-4.05-1.7-6.02,2.12-9.18,5.58-10.08,12.52-1.48,11.48,.59,16.51-14.95,10.59-.29-.11-.75,.24-1.13,.38q1.09,4.3,5.44,4.99c7.81,1.25,9.02,2.77,7.63,10.03Zm-18.35-23.15c3.04-1.74,6.33-.93,9.26-1.77,2.81-.81,5.91-1.76,6.87-5.19,.54-1.94-.37-4.34-2.2-2.91-4.43,3.48-9.91,5.44-13.93,9.86Zm-4.95-21.65c1.54-3.1-1.1-5.25-.8-7.83,.17-1.44,.45-3.17-1.91-3.21-.84-.02-1.87-.2-2.05,.91-.21,1.31-1.69,2.89,.37,3.93,2.35,1.19,2.42,3.91,4.39,6.2Zm-19.46-9.88c1-.12,2.12,.12,2.12-.99,0-.67-.7-1.35-1.08-2.02-.7,.72-1.41,1.45-2.11,2.17,.4,.31,.8,.63,1.08,.84Zm12.49-2.58c-.3,.22-.57,.43-.85,.64,.15,.14,.32,.43,.44,.41,.37-.05,.71-.23,1.07-.35-.22-.23-.44-.46-.66-.69Z"/><path class="cls-1" d="M7.46,36.68c-2.71-.81-7.05,1.25-6.38-4.89,.81-7.42,4.48-3.21,7.45-2.44,1.18,2.66-1.29,4.8-1.07,7.32Z"/><path class="cls-2" d="M31.15,88.96c-2.66-.84-5.32-1.67-7.98-2.51,0,0,.07,.02,.07,.02-.05-.55-.1-1.1-.15-1.65,.04-.63,.14-1.27,.12-1.9-.08-1.89-2.59-4.2,.35-5.57,3.46-1.61,2.82,2.72,4.58,3.71,1,2.18,1.99,4.35,2.99,6.53,0,.45,.02,.91,.03,1.36Z"/><path class="cls-3" d="M20.73,57.64c-3.64-.19-6.39,2.18-9.65,3.56-1.73-4.18,.02-6.05,3.74-7.22,3.65-1.15,5.3,.27,5.86,3.71,0,0,.06-.05,.06-.05Z"/><path class="cls-1" d="M20.59,65.44c2.27,3.42-.53,6.01-1.69,9.68-2.03-3.83-6.41-6.08-3.61-11.01,1.78,.46,3.56,.91,5.34,1.37l-.04-.04Z"/><path class="cls-2" d="M29.64,76.21c2.09-.37,3.73,.16,4.49,2.33,.82,2.35,2.47,3.21,4.87,2.74-.01,.51-.02,1.02-.03,1.53-1.37,1.22-3.45,1.67-4.1,3.7-.27,.04-.55,.06-.83,.05-1.43-2.88,.71-8.23-5.43-7.86,.34-.83,.68-1.66,1.03-2.49Z"/><path class="cls-2" d="M7.46,36.68c-.22-2.53,2.24-4.66,1.07-7.32,.92,.27,1.85,.53,2.78,.79,.57,2.25,2.31,3.66,3.75,5.3-.97-.06-1.72,.25-2.06,1.25-1.84,0-3.69,0-5.53-.01Z"/><path class="cls-1" d="M28.61,78.7c6.13-.37,3.99,4.98,5.43,7.86-.62,1.32-1.69,1.4-2.91,1.04-1-2.18-1.99-4.35-2.99-6.53,.16-.79,.32-1.58,.48-2.37Z"/><path class="cls-3" d="M28.42,69.66c1.17-1.49,2.33-2.97,4.34-3.46q1.08,5.39-4.5,5.7c.05-.75,.11-1.49,.16-2.24Z"/><path class="cls-3" d="M13,36.69c.34-1,1.09-1.31,2.06-1.25,7.92-.96,4.74,3.15,3.01,6.6-.37-1.52,.97-3.89-1.25-4.4-1.7-.39-1.15,2.5-2.63,3.09-2.56-.71,.71-3.13-1.18-4.04Z"/><path class="cls-1" d="M14.17,40.73c1.48-.58,.93-3.48,2.63-3.09,2.23,.52,.88,2.88,1.25,4.4,0,0,0,0,0,0-.88,0-1.77,.02-2.65,.02-.41-.45-.83-.89-1.24-1.34Z"/><path class="cls-3" d="M20.63,65.48c-1.78-.46-3.56-.91-5.34-1.37,1.69-.99,3.38-1.98,5.08-2.97,.09,1.44,.18,2.89,.27,4.34Z"/><path class="cls-3" d="M15.42,42.06c.88,0,1.77-.02,2.65-.02,.18,2.17-2.04,2.7-2.87,4.18-1.75-1.48,.32-2.76,.22-4.15Z"/><path class="cls-1" d="M23.09,84.82c.05,.55,.1,1.1,.15,1.65-1.15,.23-2.13-.21-1.97-1.38,.15-1.08,1.14-.54,1.82-.27Z"/><path class="cls-3" d="M21.76,60.37c-.44-.06-.87-.12-1.31-.18,.09-.85,.18-1.69,.28-2.54,0,0-.06,.05-.06,.05,.7,.75,1.37,1.52,1.1,2.67Z"/><path class="cls-3" d="M24.59,58.37c-.21,.32-.49,.54-.84,.67-.02-.6,.2-.9,.84-.67Z"/><path class="cls-4" d="M68.24,118.93c1.39-7.26,.17-8.78-7.63-10.03q-4.36-.7-5.44-4.99c.38-.14,.84-.49,1.13-.38,15.54,5.92,13.47,.88,14.95-10.59,.89-6.94,4.05-10.4,10.08-12.52,2.15-.76,3.7-.16,4.05,1.7,.3,1.59-.52,3.77-2.71,3.66-5.34-.27-5.3,4.09-5.64,7.11-.4,3.59,1.13,6.49,5.88,4.56,1.57-.64,3.4-.66,5.1-1,1.28-.25,2.12,.39,2.64,1.41,.65,1.29-.4,1.96-1.24,2.59-1.21,.91-2.55,1.67-3.7,2.65-3.94,3.36-3.61,7.17,.79,9.7,2.01,1.15,4.49,1.72,5.7,4.68-9.45-1-18.67-1.5-16.19-15.83-5.6,5.65,3.44,15.11-7.74,17.31Z"/><path class="cls-4" d="M49.89,95.77c4.02-4.42,9.5-6.38,13.93-9.86,1.82-1.43,2.74,.96,2.2,2.91-.96,3.42-4.05,4.37-6.87,5.19-2.93,.84-6.22,.03-9.26,1.77Z"/><path class="cls-4" d="M31.12,87.6c1.22,.36,2.29,.28,2.91-1.04,.28,0,.55-.01,.83-.05,3.88,.55,5.48,6.54,10.58,4.37,.94-.4,1.41,.75,1.41,1.66-.01,1.82-1.22,2.14-2.64,1.76-4.57-1.24-9.36-1.95-13.06-5.33,0-.45-.02-.91-.03-1.36Z"/><path class="cls-4" d="M38.97,82.8c.01-.51,.02-1.02,.03-1.53,5.48-.48,10.96-.96,16.44-1.45-3.18,3.43-5.98,7.1-10.86,3.2-1.18-.94-3.71-.19-5.62-.22Z"/><path class="cls-2" d="M44.94,74.13c-1.97-2.29-2.04-5-4.39-6.2-2.06-1.04-.57-2.62-.37-3.93,.18-1.11,1.21-.93,2.05-.91,2.36,.04,2.08,1.77,1.91,3.21-.31,2.58,2.34,4.74,.8,7.83Z"/><path class="cls-3" d="M25.47,64.25c-.27-.21-.67-.53-1.08-.84,.7-.72,1.41-1.45,2.11-2.17,.38,.67,1.08,1.35,1.08,2.02,0,1.11-1.11,.87-2.12,.99Z"/><path class="cls-4" d="M94.45,139.12c-.15-.79-.7-2.02-.39-2.29,.99-.86,1.23,.46,1.75,.96-.45,.44-.9,.89-1.36,1.33Z"/><path class="cls-2" d="M37.96,61.66c.22,.23,.44,.46,.66,.69-.35,.13-.7,.3-1.07,.35-.12,.02-.29-.26-.44-.41,.28-.21,.55-.41,.85-.64Z"/></g></svg>