<?xml version="1.0" encoding="UTF-8"?><svg id="Capa_2" xmlns="http://www.w3.org/2000/svg" viewBox="0 0 141.24 784.25"><defs><style>.cls-1{fill:#72a598;}.cls-2{fill:#80b8cb;}.cls-3{fill:#79d2c0;}.cls-4{fill:#c2e0db;}.cls-5{fill:#8bb7b3;}.cls-6{fill:#fbfbfb;}</style></defs><g id="Capa_1-2"><path class="cls-1" d="M97.26,779.48c.12,1.27,.23,2.53,.43,4.77-4.86-3.65-10.1-5.96-10.29-12.15-.23-7.69-4.1-5.45-8.37-3.5-.02,2.16,5.41,2.06,2.4,4.94-1.73,1.66-4.22,.95-5.77-.98-2.07-2.57-5.14-2.73-8.44-3.36,3.08-4.08,6.27-.02,9.89-1.17-1.53-3.49-4.42-3.6-7.23-3.83-2.14-.17-4.48,.2-6.36-.57-1.85-.76-3.3-2.76-.04-4.01,2.95-1.13,6.56-2.16,4.07-6.15-2.4-3.85-5.31-.33-7.88,.61-1.15,.42-2.09,1.43-3.17,2.21-1.1-5.14-5.88-6.95-10.17-4.01-.46,.31-1.27,.91-1.38,.81-3.36-3.28-8.81-4.85-9.12-10.59-.05-.84,1.27-2.15-.18-2.53-10.58-2.74,.37-3.58,.54-5.5-2.66-3.52-9.1-2.16-10.24-7.67,2.66,.84,5.32,1.67,7.98,2.51,3.7,3.38,8.5,4.09,13.06,5.33,1.42,.39,2.63,.06,2.64-1.76,0-.91-.47-2.05-1.41-1.66-5.1,2.16-6.7-3.83-10.58-4.37,.65-2.03,2.73-2.48,4.1-3.7,1.91,.03,4.44-.72,5.62,.22,4.88,3.9,7.68,.23,10.86-3.2-5.48,.48-10.96,.96-16.44,1.45-2.4,.47-4.04-.39-4.87-2.74-.76-2.17-2.4-2.7-4.49-2.33-2.73-.71-3.3-2.11-1.37-4.3q5.57-.31,4.5-5.7c-2.01,.49-3.17,1.98-4.34,3.46-2.94-.79-4.59-3.98-7.83-4.22l.04,.04c-.09-1.45-.18-2.89-.27-4.34-.08-.33-.05-.65,.09-.96,.44,.06,.88,.12,1.31,.18,2.14,1.78,1.29-.94,1.99-1.33,.36-.13,.64-.35,.84-.67,1.53-1.76,3.49-3.39,2.38-6.07-.06-.15,.75-5.94-3.47-1.24-3.13,3.48-7.09-.3-8.31-4.84,.83-1.48,3.05-2.01,2.87-4.18h0c1.74-3.44,4.91-7.55-3.01-6.6-1.43-1.64-3.17-3.05-3.74-5.3,.29-1.09,4.34-1.58,.58-3.28-1.95-.88-4-1.88-6.07-2.06-4.3-.37-5.18-3.35-5.33-6.6-.18-4.07,3.39-1.9,5.2-2.73,.71-.32,1.34-.81,2.96-1.82-3.34-.95-5.69-1.24-7.58-3.83-2.51-3.44,.19-5.56,.27-8.25,3.68-2.54,7.76-1.27,11.71-1.26,2.28,.55,2.76,5.49,6.43,2.63,4.5,2.17,8.47,5.02,11.62,8.94,1.23,9.63-1.57,19.77,4.66,28.8,2.17,3.15,3.3,4.2,6.89,2.36,5.87-3,7.77-1.53,7.39,5.23-.08,1.5-.57,2.98-.91,4.46-2,8.88,3.18,15.35,12.48,15.56,6.08,.14,12.17,.13,18.24,.46,5.02,.27,8.17,2.66,8.66,8.16,.3,3.33,2.86,5.86,6,5.55,4.48-.44,4.41,1.78,4.41,4.9-.03,11.73,.2,23.47,.06,35.2-.05,3.88,.68,6.11,5.17,6.14,3.88,.03,7.77,.76,11.64,1.29,2.37,.32,5.14,.59,4.62,4.05-.47,3.17-2.87,2.43-5.08,2.18-3.01-.34-6.09-.18-8.09-3.2-.85-1.28-2.21-1.22-3.39-.24-.88,.72-.49,1.44,.03,2.23,1.1,1.69,3.94,3.66,1.79,5.41-2.19,1.77-5.37,.92-7.72-1.18-.64-.57-1.42-.99-2.14-1.47-.52-.5-.76-1.82-1.75-.96-.3,.27,.24,1.5,.39,2.29Zm-26.21-20.19c11.18-2.2,2.14-11.65,7.74-17.31-2.48,14.33,6.73,14.83,16.19,15.83-1.21-2.96-3.69-3.52-5.7-4.68-4.4-2.53-4.73-6.34-.79-9.7,1.15-.98,2.49-1.74,3.7-2.65,.84-.63,1.89-1.3,1.24-2.59-.51-1.01-1.36-1.66-2.64-1.41-1.7,.33-3.52,.36-5.1,1-4.75,1.93-6.28-.96-5.88-4.56,.34-3.02,.3-7.37,5.64-7.11,2.19,.11,3.01-2.07,2.71-3.66-.35-1.86-1.9-2.46-4.05-1.7-6.02,2.12-9.18,5.58-10.08,12.52-1.48,11.48,.59,16.51-14.95,10.59-.29-.11-.75,.24-1.13,.38q1.09,4.3,5.44,4.99c7.81,1.25,9.02,2.77,7.63,10.03Zm-18.35-23.15c3.04-1.74,6.33-.93,9.26-1.77,2.81-.81,5.91-1.76,6.87-5.19,.54-1.94-.37-4.34-2.2-2.91-4.43,3.48-9.91,5.44-13.93,9.86Zm-4.95-21.65c1.54-3.1-1.1-5.25-.8-7.83,.17-1.44,.45-3.17-1.91-3.21-.84-.02-1.87-.2-2.05,.91-.21,1.31-1.69,2.89,.37,3.93,2.35,1.19,2.42,3.91,4.39,6.2Zm-19.46-9.88c1-.12,2.12,.12,2.12-.99,0-.67-.7-1.35-1.08-2.02-.7,.72-1.41,1.45-2.11,2.17,.4,.31,.8,.63,1.08,.84Zm12.49-2.58c-.3,.22-.57,.43-.85,.64,.15,.14,.32,.43,.44,.41,.37-.05,.71-.23,1.07-.35-.22-.23-.44-.46-.66-.69Z"/><path class="cls-1" d="M70.48,172.16c-1.03-5.1-.31-9.85,2.7-14.19,1.29-1.86,1.63-3.95,1.3-6.19-1.27-8.58-1.3-17.22-1.35-25.86-.01-2.06-.75-3.53-2.13-5.14-3.29-3.85-2.22-4.86,1.57-8.18,2.16-1.88,2.56-6.19,3.01-9.5,.52-3.83,.23-7.77,.28-11.66,.12-.52,.24-1.04,.37-1.56-.06-2.45-.11-4.91-.17-7.36,3.4-.07,6.9-3.59,10.28,.5,.52,.63,2.11-.8,2.42-2.16h-.03c1.2,.19,2.16-.09,2.64-1.33l-.04,.02c4.26,.06,8.49-.03,12.17-2.65,2.83-2.37,3.87-6.44,7.57-8,3.91,1.58,6.16,4.14,4.42,8.53-.9,2.27-.32,4.17,.53,6.22,1.98,4.8,4.29,9.53,5.67,14.5,2.16,7.73,5.81,12.45,14.84,11.4,4.15-.48,5.65,2.46,4.13,6.5-1.83,4.86-3.68,9.7-5.41,14.59-.8,2.27-2.36,3.36-4.55,4.15-4.88,1.76-9.72,3.68-14.48,5.74-5.26,2.28-7.03,7.59-3.42,11.85,3.06,3.61-.25,4.25-1.77,5.92-2.33-.11-4.66-.35-6.99-.28-2.01,.06-4.5-.92-5.86,1.3-2.03,3.3-3.74,6.79-5.58,10.21l.04-.03c-1.64-.14-3.03,1.39-4.89,.38-4.57-2.51-8.43-.38-12.12,2.26l.05-.03c-1.74,0-3.47,.02-5.21,.03Z"/><path class="cls-2" d="M33.91,652.24c-3.15-3.92-7.13-6.77-11.62-8.94-.04-3.8-1.35-7.38-3.34-10.36-2.36-3.53-.2-5.95,.89-8.77-4.92,0-3.53-2.65-3.07-5.87,.49-3.5,2.6-5.41,4.77-7.35,2.74-2.45,1.58-4.15-.11-6.54-1.93-2.74-3.09-2.57-5.38-.35-3.03,2.94-3.94-.94-5.22-2.4-2.79-3.17-5.05-5.37-5.71,1.14-.16,1.62-1,2.27-2.51,2.27-2.06,0-2.22-1.44-2.5-3.05-.79-4.52,2.72-6.45,5.18-9.05,2.26-2.39,5.52-3.62,3.1-8.71-2.25-4.75,3.37-3.1,5.78-3.89,.75,.74,1.38,1.9,2.27,2.16,7.4,2.22,10.36,6.29,9.18,13.2,4.93-3.18,5.92-7.46,4.23-12.63-.03-.79-.07-1.58-.1-2.38-.31-.5-.63-1-.94-1.49,4.52-5.33,6.19-11.36,4.09-18.12-1.28-4.1,2.06-5.38,3.83-7.93,2.05-2.96-5.59-3.65-3.29-6.91,2.01-2.85,3.76-5.44,3.84-8.95,6.4-.27,11.05,3.71,16.1,6.7,.62,.59,1.84,1.27,1.76,1.75-.93,5.87,1.5,8.64,7.39,8.97,1.59,.09,1.34,1.97,1.1,3.24-.3,1.62-1.11,2.86-2.99,2.82-1.95-.05-3.91-.1-5.85-.29-1.63-.15-3.71-1.34-4.08,1.4-.28,2.12,.65,3.84,3.11,4.16,1.08,.14,2.2,.12,3.22,.44,5.02,1.53,6.06,5.88,2.12,9.33-2.18,1.91-2.44,3.38-1.82,6.51,1.29,6.55,.04,13.37-.97,20.01-1.1,7.25-6.05,12.88-8.61,19.53-.39,1-1.15,2.52-.75,3.05,3.88,5.11,.79,9.86-.13,14.92-1.17,6.48-5.64,11.37-12.98,12.37Zm1.01-25.38c-.43-2.2-2.04-4.45-4.04-3.81-1.8,.58-5.36,1.4-4.89,4.21,.46,2.73,3.6,3.67,6.13,3.98,3.09,.37,1.66-2.85,2.8-4.38Z"/><path class="cls-3" d="M109.33,160.62c.8,3.8,1.67,7.58,2.38,11.39,.27,1.46,.77,3.92,.13,4.33-5.55,3.55-2.57,7.7-1.14,11.74,1.58,4.46,1.53,7.82-4.62,7.49-2.7-.14-3.17,1.58-3.11,3.78,.07,2.38-.2,4.79,.14,7.12,.9,6.15-.54,10.91-6.66,13.71-3.77,1.72-4.2,5.7-5.37,9.17-1.39,4.14-1.25,9.2-6.7,11.02-1.33,.44-.83,2.29-.91,3.55-1.58,1.08-3.36,1.38-5.23,1.34l.03,.02c-.52-1.17-1.47-1.48-2.65-1.34l.04,.03c.08-1.15-.01-2.21-1.34-2.66l.03,.04c.03-1.11,.06-2.23-1.33-2.63l.02,.02c-2.73-2.4-5.34-4.17-6.49,1.3l.03-.02-7.64-1.5s-.06-.02-.06-.02c-.07-.81-.13-1.62-.2-2.42,3.92-11.84,7.8-23.5,5.49-36.51-1.55-8.76,4.02-16.56,6.29-24.82,1.53-1.31,3.99-.76,5.22-2.65,0,0-.05,.03-.05,.03,4.37,.34,8.64-2.53,13.19-.07,1.49,.81,3.23-.64,3.81-2.56,0,0-.04,.03-.04,.03,2.77,.39,3.99-1.82,4.59-3.62,2.16-6.45,7.09-5.85,12.13-5.31Z"/><path class="cls-3" d="M111.07,68.92c-3.7,1.56-4.74,5.62-7.57,8-4.19,.25-8.74-1.1-12.17,2.65,0,0,.04-.02,.04-.02-1.16-.12-2.13,.15-2.64,1.33,0,0,.03,0,.03,0-4.16-4.64-8.51-.62-12.78-.29,.99-8.83-2.55-17.45,.48-26.71,1.71-5.22-1.37-12.1-2.66-18.15-.41-1.92-.83-3.73-.62-5.68,6.15-.9,12.42-2.82,18.49-.92,5.01,1.57,7.25-.26,8.8-4.47,3.1,2.96,6.2,5.92,9.3,8.89,.47,.45,1.35,1.26,1.29,1.35-3.34,4.61-.49,10.25-2.37,14.85-1.63,3.98-3.61,7.29,.36,10.88,2.51,2.26,.16,5.82,2.02,8.3Z"/><path class="cls-1" d="M53.37,544.02c-5.06-2.99-9.7-6.97-16.1-6.7-3.82-.97-4.55-3.31-2.15-6.16,4.12-4.89,5.2-10.28,3.83-16.38-1.35-6.03,3.19-8.39,8.11-11.55-4.37-1.03-7.21-2.58-3.79-6.72,1.25-1.51,.19-2.89-1-3.94-1.49-1.33-2.76-.55-3.95,.59-.91,.87-1.79,2.24-2.85,2.43-4.92,.88-5.52,3.31-3.19,7.29,1.38,2.36,1.9,4.46-.77,6.76-3.45,2.97-1.88,7.65-.8,10.57,2.09,5.62-2.91,6.42-4.9,8.94-.91,1.14-4.03-.04-5.89-1.45-1.89-1.44-1.22-2.9-.48-4.57,3.09-6.93-.21-14.84,3.11-21.66,2.08-4.27-.54-7.43-1.21-11.18-1.02-5.67-.1-11.69,0-17.56,3.28-1.31,6.17,.92,9.31,1.08,2.23,.11,4.6,1.67,5.93-1.49l-.04,.02c5.08,.56,10.17,1.13,15.25,1.69,.12,6.72,.22,13.44,.35,20.15,.04,2.15-.43,4.43,1.03,6.29,1.95,2.49,1.19,4.01-1.22,5.76-2.73,1.98-4.53,20.25-1.92,21.17,6.56,2.32,.34,9.57,5.46,12.23,.73,.38-1.09,2.98-2.1,4.38Z"/><path class="cls-1" d="M83.64,246.3c2.08,4.38,1.9,9.26,3.14,13.83,.36,1.32,.58,2.83-.81,3.46-7.85,3.6-5.02,13.8-11.56,18.53-1.53,1.11-1.61,6.17,.69,8.49,3.23,3.26,2.41,6.18,.56,9.44-2.61-2.18-5.22-4.51-7.86-.04h0c-2.91-.38-5.48,2.62-8.52,.84-.94-8.84-1.48-17.74-2.92-26.49-1.41-8.53,3.07-15.07,6.28-22.04,1.6-3.47,2.04-6.46-.08-9.67,1.67-.36,3.9,.14,4.02-2.61,0,0-.03,.02-.03,.02,1.93-1.59,4.32-.91,6.49-1.3,0,0-.02-.02-.02-.02-.05,1.12,.16,2.12,1.33,2.63,0,0-.03-.04-.03-.04-.12,1.17,.18,2.13,1.34,2.66,0,0-.04-.03-.04-.03,.46,1.29,1.42,1.57,2.65,1.34,0,0-.03-.02-.03-.02,1.37,2.57,3.52,1.04,5.39,1.03Z"/><path class="cls-3" d="M63.97,391.39c.09,9.9-1.39,19.79-.03,29.69,.22,1.63-.48,2.93-1.3,4.22-2.64,1.76-4.78,1.11-6.52-1.38-.05-1.93-1.17-2.49-2.94-2.57-4.17-.2-7.84-2-11.47-3.86l.04,.06c.09-1.5,.38-3.07-1.34-3.96l.02,.04c-.08-1.96-1.17-2.86-2.96-2.22-2.22,.79-2.45,2.78-2.23,4.84l.04-.05c-.45,.45-.89,.9-1.34,1.35l.03-.04c-3.81,2.22,.15,6.67-2.64,9.18l.02-.02c-1.78-.03-2.76,.74-2.63,2.62l.03-.03c-.97-.06-1.99,1.67-2.92-.08,.93-4.8,.96-9.37-2.37-13.49-1.59-1.96-1.01-4.54-1.16-6.89-.23-3.69,1.19-4.69,4.61-3.28,4.95,2.05,6.64,.14,7.28-5.02,.91-7.34,1.84-14.89,6.97-20.92,0,0-.04,.04-.04,.04,.92,.88,1.93,1.57,3.31,1.34l-.03-.04c.07,2.02-.78,4.57,2.19,5.17,2.21,.45,4.38,.2,4.33-2.96,5.02,1.72,9.35,4.51,13.08,8.27Z"/><path class="cls-1" d="M56.11,423.92c1.74,2.49,3.88,3.13,6.52,1.38,5.5,.84,4.23,5.72,5.07,9.05,.91,3.62-2.39,4-4.87,4.45-3.75,.68-4.55,2.9-4.45,6.41,.06,2.11,1.94,5.39-2.13,6.3-1.83-.69-3.65-2.54-5.47,.01-4.63-1.63-9.46-1.22-14.23-1.44l.02,.03c-.11-.77-.42-1.35-1.32-1.33h.02c-1.4-4.6-4.63,.47-6.58-1.24-1.25-4.74-2.5-9.48-3.75-14.22,2.42-.28,4.29-1.08,3.81-4.07,0,0-.03,.03-.03,.03,1.19-.56,2.4-1.1,2.63-2.62,0,0-.02,.02-.02,.02,7.17-1.25,.84-6.38,2.64-9.18,0,0-.03,.04-.03,.04,.88-.02,1.2-.6,1.34-1.35,0,0-.04,.05-.04,.05,1.39-1.54,2.67-3.32,5.19-2.61,0,0-.02-.04-.02-.04-.18,1.53-.11,2.98,1.34,3.96,0,0-.04-.06-.04-.06,.06,2.65,1.81,3.49,4.07,3.98,3.46,.74,6.9,1.63,10.34,2.45Z"/><path class="cls-1" d="M41.1,379.61s.04-.04,.04-.04c.77-9.02,4.06-17.21,8.27-25.1,.93,.14,1.85,.29,2.78,.43l-.04-.02c1.65,2.27,2.61,6.26,6.6,2.62l-.04,.02c4.35-.43,8.7-.87,13.05-1.3l-.05-.02c.71,3.7,3.53,3.91,6.47,3.91-3.92,4.56-5.35,9.46-2.8,15.32,2.71,6.23,.26,10.51-5.67,13.28-1.91,.89-3.44,2.62-5.75,2.68-3.73-3.76-8.06-6.55-13.08-8.27-3.62,3.51-4.63-.64-6.52-2.21,0,0,.03,.04,.03,.04-.75-1.31-1.88-1.68-3.31-1.34Z"/><path class="cls-3" d="M50.77,451.52c1.82-2.55,3.65-.7,5.47-.01,.42,1.15,2.59,1.55,1.79,3.08-3.31,6.31-5.78,13.25-6.02,17.57-5.15,1.28-10.37-3.49-15.49,.19,0,0,.04-.02,.04-.02-5.42,.41-10.47-1.31-15.56-2.74-.68-4.21-.11-7.7,4.09-10.18,3.23-1.9,2.39-6.11,3.9-9.07,2.09-.52,4.18-1.04,6.28-1.56,0,0-.02,0-.02,0,.44,.44,.88,.89,1.32,1.33,0,0-.02-.03-.02-.03,4.31,4.78,9.32,2.62,14.23,1.44Z"/><path class="cls-3" d="M54.88,336.6c.47-1.88,1.58-3.86,1.29-5.62-1.54-9.46,1.05-18.23,3.85-27.02,2.07-2.37,6.84,.62,7.79-3.95h0c4.02-1.22,6.56,3.21,10.38,2.72,2.14,3.92,4.23,7.87,6.44,11.75,1.51,2.65,.71,3.94-2.17,4.25-2.28-.13-4.55-.26-6.82-.39l.04,.02c-.47-1.26-1.5-1.43-2.66-1.35l.07,.05c-.89-1.7-1.78-1.55-2.65,.01l.09-.06c-5.91-.38-3.19,5.14-5.12,7.49-.95,3.36-5.43,5.17-4.14,9.51-.93,.33-1.19,1.07-1.24,1.96l.1,.21c-1.64,1.5-3.37,1.86-5.25,.42Z"/><path class="cls-3" d="M83.4,343.48c-1.3,4.21-2.6,8.42-3.9,12.63-2.55,3.65-5.19-.68-7.78,.09,0,0,.05,.02,.05,.02-4.73-3.33-8.82-.35-13.05,1.3,0,0,.04-.02,.04-.02-2.71,.41-3.86-3.1-6.6-2.62,0,0,.04,.02,.04,.02-.47-1.18-1.47-1.37-2.57-1.39-.11-5.14,2.62-9.48,4.02-14.2,2.58,.39,5.15,.78,7.73,1.17l-.06-.03c1.76,1.83,3.51,2.25,5.26,0l-.1,.06c1.48-.03,3.15,.5,4-1.36l-.08,.05c2.61-.29,5.48,.95,7.76-1.29,1.46,2.13,4.69,2.58,5.23,5.57Z"/><path class="cls-1" d="M83.4,343.48c-.54-2.99-3.78-3.44-5.23-5.57-2.87-1.26-5.32-.03-7.76,1.29,0,0,.08-.05,.08-.05-1.49,0-2.94,.12-4,1.36,0,0,.1-.06,.1-.06-1.76,0-3.51,0-5.26,0,0,0,.06,.03,.06,.03-.69-1.36-1.66-2.63-1.25-4.31,0,0-.1-.21-.1-.21,.41-.65,.83-1.3,1.24-1.96-1.29-4.33,3.19-6.15,4.14-9.5,5.11-.17,2.32-5.74,5.12-7.49,0,0-.09,.06-.09,.06,.88,0,1.77,0,2.65-.01,0,0-.07-.05-.07-.05,.6,1.02,1.51,1.42,2.66,1.35,0,0-.04-.02-.04-.02,1.17,3.41,4.36,1.75,6.54,2.61,.62,1.35,1.06,2.82,1.89,4.03,1.16,1.68,4.97,.45,4.48,4.21-.6,4.64-.63,9.36-1.46,13.95-.32,1.75-2.33,1.34-3.69,.33Z"/><path class="cls-1" d="M73.32,28.36c-1.82-5.88-2.02-10.69,5.53-12.99,4.01-1.22,1.64-5.71,2.45-8.64,.64-2.32-1.87-6.13,2.77-6.68,3.98-.47,5.01,2.42,5.93,5.48,.72,2.41,1.1,5.17,4.59,5.4,1.56,.11,2.12,1.43,1.88,2.86-.58,3.37,1.36,5.74,3.07,8.23-1.56,3.25-3.48,6.47-7.7,5.16-6.42-1.99-12.4-.11-18.51,1.17Z"/><path class="cls-4" d="M29.85,583.11c1.69,5.18,.7,9.45-4.23,12.63,1.19-6.9-1.78-10.97-9.18-13.2-.89-.27-1.52-1.42-2.27-2.16-.24-.6-.48-1.2-.72-1.79,7.44-2.01,2.09-8.34,4-12.39,1.69-3.58-1.74-6.49-4.61-8.61-1.76-2.79,6.82,.2,2.32-4.45-.82-.85,8.74-8.94,10.34-8.39,1.22,.42,3.9,1.3,2.26,2.85-6.59,6.23-.88,11.86,.38,17.68,.51,2.32,1.05,4.35-2.22,4.76-.44-.87-1.21-1.06-2.07-.89-.16,.03-.25,.45-.37,.69,.81,.07,1.63,.14,2.44,.22,.29,4.66-4.83,10.94,3.92,13.06Z"/><path class="cls-2" d="M15.86,640.68c-3.95,0-8.04-1.28-11.71,1.26-1.89-6.73,.32-12.58,3.9-18.13,1.08-.02,2.16-.03,3.24-.05-1.24,6.38,7.31,10.12,4.57,16.91Z"/><path class="cls-1" d="M10.27,677.03c-2.71-.81-7.05,1.25-6.38-4.89,.81-7.42,4.48-3.21,7.45-2.44,1.18,2.66-1.29,4.8-1.07,7.32Z"/><path class="cls-4" d="M73.32,28.36c6.11-1.29,12.09-3.17,18.51-1.17,4.22,1.31,6.14-1.91,7.7-5.16,.32,.88,.63,1.75,.95,2.63-1.55,4.21-3.8,6.04-8.8,4.47-6.07-1.9-12.34,.01-18.49,.92,.05-.56,.09-1.12,.14-1.68Z"/><path class="cls-4" d="M33.96,729.31c-2.66-.84-5.32-1.67-7.98-2.51,0,0,.07,.02,.07,.02-.05-.55-.1-1.1-.15-1.65,.04-.63,.14-1.27,.12-1.9-.08-1.89-2.59-4.2,.35-5.57,3.46-1.61,2.82,2.72,4.58,3.71,1,2.18,1.99,4.35,2.99,6.53,0,.45,.02,.91,.03,1.36Z"/><path class="cls-4" d="M109.33,160.62c-5.04-.54-9.97-1.14-12.13,5.31-.6,1.79-1.82,4-4.59,3.62,1.84-3.41,3.55-6.91,5.58-10.21,1.36-2.22,3.85-1.23,5.86-1.3,2.32-.07,4.66,.17,6.99,.28-.57,.77-1.14,1.53-1.71,2.3Z"/><path class="cls-5" d="M23.53,698c-3.64-.19-6.39,2.18-9.65,3.56-1.73-4.18,.02-6.05,3.74-7.22,3.65-1.15,5.3,.27,5.86,3.71,0,0,.06-.05,.06-.05Z"/><path class="cls-1" d="M23.4,705.79c2.27,3.42-.53,6.01-1.69,9.68-2.03-3.83-6.41-6.08-3.61-11.01,1.78,.46,3.56,.91,5.34,1.37l-.04-.04Z"/><path class="cls-4" d="M32.45,716.56c2.09-.37,3.73,.16,4.49,2.33,.82,2.35,2.47,3.21,4.87,2.74-.01,.51-.02,1.02-.03,1.53-1.37,1.22-3.45,1.67-4.1,3.7-.27,.04-.55,.06-.83,.05-1.43-2.88,.71-8.23-5.43-7.86,.34-.83,.68-1.66,1.03-2.49Z"/><path class="cls-4" d="M11.29,623.77c-1.08,.02-2.16,.03-3.24,.05-1.22-1.12-2.44-2.23-3.66-3.35,2.57,.38,3.72-4.42,6.31-1.84,1.16,1.15,3.65,3.09,.59,5.15Z"/><path class="cls-4" d="M10.27,677.03c-.22-2.53,2.24-4.66,1.07-7.32,.92,.27,1.85,.53,2.78,.79,.57,2.25,2.31,3.66,3.75,5.3-.97-.06-1.72,.25-2.06,1.25-1.84,0-3.69,0-5.53-.01Z"/><path class="cls-1" d="M31.42,719.05c6.13-.37,3.99,4.98,5.43,7.86-.62,1.32-1.69,1.4-2.91,1.04-1-2.18-1.99-4.35-2.99-6.53,.16-.79,.32-1.58,.48-2.37Z"/><path class="cls-4" d="M75.98,80.58c4.27-.33,8.62-4.36,12.78,.29-.31,1.36-1.89,2.79-2.42,2.16-3.39-4.09-6.88-.57-10.28-.5-.03-.65-.06-1.3-.08-1.94Z"/><path class="cls-4" d="M21.01,469.58c5.1,1.43,10.14,3.16,15.56,2.74-1.34,3.16-3.71,1.6-5.93,1.49-3.14-.15-6.03-2.39-9.31-1.08-.11-1.05-.22-2.1-.33-3.16Z"/><path class="cls-4" d="M36.53,472.35c5.12-3.68,10.34,1.09,15.49-.19-.08,.62-.16,1.25-.24,1.88-5.09-.56-10.17-1.12-15.25-1.69Z"/><path class="cls-4" d="M78.2,302.74c-3.83,.49-6.36-3.94-10.38-2.72,2.64-4.47,5.25-2.15,7.86,.04,1.59,.19,2.54,.98,2.52,2.68Z"/><path class="cls-5" d="M31.23,710.02c1.17-1.49,2.33-2.97,4.34-3.46q1.08,5.39-4.5,5.7c.05-.75,.11-1.49,.16-2.24Z"/><path class="cls-5" d="M15.8,677.04c.34-1,1.09-1.31,2.06-1.25,7.92-.96,4.74,3.15,3.01,6.6-.37-1.52,.97-3.89-1.25-4.4-1.7-.39-1.15,2.5-2.63,3.09-2.56-.71,.71-3.13-1.18-4.04Z"/><path class="cls-4" d="M71.71,356.19c2.59-.76,5.23,3.56,7.78-.09,.1,1.51,.12,2.99-1.31,4-2.94,0-5.76-.22-6.47-3.91Z"/><path class="cls-4" d="M66.59,240.05c-.12,2.75-2.35,2.25-4.02,2.61,0,0,.07,.04,.07,.04-.21-1.02-1.03-1.22-1.87-1.4-1.61-.25-1.93-1.36-1.83-2.75,2.55,.5,5.1,1,7.65,1.49Z"/><path class="cls-4" d="M60.13,336.18c-.41,1.68,.55,2.95,1.25,4.31-2.58-.39-5.15-.78-7.73-1.17-.12-1.15,.25-2.08,1.23-2.72,1.88,1.44,3.61,1.08,5.25-.42Z"/><path class="cls-4" d="M67.82,300.01c-.95,4.57-5.73,1.58-7.79,3.95-1.07-.84-1.22-1.89-.73-3.1,3.05,1.78,5.62-1.22,8.53-.84Z"/><path class="cls-4" d="M35.27,448.78c-2.09,.52-4.18,1.04-6.28,1.56-.1-.93-.2-1.87-.31-2.8,1.95,1.7,5.18-3.36,6.58,1.24Z"/><path class="cls-1" d="M16.98,681.08c1.48-.58,.93-3.48,2.63-3.09,2.23,.52,.88,2.88,1.25,4.4,0,0,0,0,0,0-.88,0-1.77,.02-2.65,.02-.41-.45-.83-.89-1.24-1.34Z"/><path class="cls-4" d="M82.17,320.96c-2.18-.87-5.37,.79-6.54-2.61,2.27,.13,4.55,.26,6.82,.39-.09,.74-.19,1.48-.29,2.22Z"/><path class="cls-5" d="M23.44,705.83c-1.78-.46-3.56-.91-5.34-1.37,1.69-.99,3.38-1.98,5.08-2.97,.09,1.44,.18,2.89,.27,4.34Z"/><path class="cls-4" d="M28.74,429.25c.48,2.99-1.39,3.79-3.81,4.07-.12-1.47-.29-2.96,.89-4.15,.92,1.75,1.94,.02,2.92,.08Z"/><path class="cls-5" d="M18.23,682.42c.88,0,1.77-.02,2.65-.02,.18,2.17-2.04,2.7-2.87,4.18-1.75-1.48,.32-2.76,.22-4.15Z"/><path class="cls-4" d="M75.69,172.13c-1.23,1.89-3.69,1.34-5.22,2.65,0-.87,0-1.75,0-2.62,1.74,0,3.47-.02,5.21-.03Z"/><path class="cls-4" d="M83.64,246.3c-1.86,.01-4.01,1.54-5.39-1.03,1.87,.04,3.65-.26,5.23-1.34,.05,.79,.11,1.58,.16,2.36Z"/><path class="cls-1" d="M25.89,725.18c.05,.55,.1,1.1,.15,1.65-1.15,.23-2.13-.21-1.97-1.38,.15-1.08,1.14-.54,1.82-.27Z"/><path class="cls-5" d="M24.57,700.72c-.44-.06-.87-.12-1.31-.18,.09-.85,.18-1.69,.28-2.54,0,0-.06,.05-.06,.05,.7,.75,1.37,1.52,1.1,2.67Z"/><path class="cls-4" d="M58.69,236.11c.07,.81,.13,1.62,.2,2.42-1.71-.67-1.32-1.52-.2-2.42Z"/><path class="cls-4" d="M49.62,353.52c1.09,.02,2.1,.21,2.57,1.39-.93-.14-1.85-.29-2.78-.43,.02-.33,.09-.65,.21-.96Z"/><path class="cls-5" d="M27.4,698.72c-.21,.32-.49,.54-.84,.67-.02-.6,.2-.9,.84-.67Z"/><path class="cls-4" d="M28.81,579.24c.31,.5,.63,1,.94,1.49-.31-.5-.63-1-.94-1.49Z"/><path class="cls-1" d="M60.77,241.3c.84,.17,1.66,.38,1.87,1.4-.62-.47-1.25-.93-1.87-1.4Z"/><path class="cls-4" d="M76.23,89.89c-.12,.52-.24,1.04-.37,1.56,.12-.52,.24-1.04,.37-1.56Z"/><path class="cls-6" d="M71.05,759.28c1.39-7.26,.17-8.78-7.63-10.03q-4.36-.7-5.44-4.99c.38-.14,.84-.49,1.13-.38,15.54,5.92,13.47,.88,14.95-10.59,.89-6.94,4.05-10.4,10.08-12.52,2.15-.76,3.7-.16,4.05,1.7,.3,1.59-.52,3.77-2.71,3.66-5.34-.27-5.3,4.09-5.64,7.11-.4,3.59,1.13,6.49,5.88,4.56,1.57-.64,3.4-.66,5.1-1,1.28-.25,2.12,.39,2.64,1.41,.65,1.29-.4,1.96-1.24,2.59-1.21,.91-2.55,1.67-3.7,2.65-3.94,3.36-3.61,7.17,.79,9.7,2.01,1.15,4.49,1.72,5.7,4.68-9.45-1-18.67-1.5-16.19-15.83-5.6,5.65,3.44,15.11-7.74,17.31Z"/><path class="cls-6" d="M52.7,736.13c4.02-4.42,9.5-6.38,13.93-9.86,1.82-1.43,2.74,.96,2.2,2.91-.96,3.42-4.05,4.37-6.87,5.19-2.93,.84-6.22,.03-9.26,1.77Z"/><path class="cls-6" d="M33.93,727.95c1.22,.36,2.29,.28,2.91-1.04,.28,0,.55-.01,.83-.05,3.88,.55,5.48,6.54,10.58,4.37,.94-.4,1.41,.75,1.41,1.66-.01,1.82-1.22,2.14-2.64,1.76-4.57-1.24-9.36-1.95-13.06-5.33,0-.45-.02-.91-.03-1.36Z"/><path class="cls-6" d="M41.77,723.16c.01-.51,.02-1.02,.03-1.53,5.48-.48,10.96-.96,16.44-1.45-3.18,3.43-5.98,7.1-10.86,3.2-1.18-.94-3.71-.19-5.62-.22Z"/><path class="cls-4" d="M47.74,714.48c-1.97-2.29-2.04-5-4.39-6.2-2.06-1.04-.57-2.62-.37-3.93,.18-1.11,1.21-.93,2.05-.91,2.36,.04,2.08,1.77,1.91,3.21-.31,2.58,2.34,4.74,.8,7.83Z"/><path class="cls-5" d="M28.28,704.6c-.27-.21-.67-.53-1.08-.84,.7-.72,1.41-1.45,2.11-2.17,.38,.67,1.08,1.35,1.08,2.02,0,1.11-1.11,.87-2.12,.99Z"/><path class="cls-6" d="M97.26,779.48c-.15-.79-.7-2.02-.39-2.29,.99-.86,1.23,.46,1.75,.96-.45,.44-.9,.89-1.36,1.33Z"/><path class="cls-4" d="M40.77,702.02c.22,.23,.44,.46,.66,.69-.35,.13-.7,.3-1.07,.35-.12,.02-.29-.26-.44-.41,.28-.21,.55-.41,.85-.64Z"/><path class="cls-4" d="M92.64,169.52c-.58,1.92-2.31,3.37-3.81,2.56-4.55-2.46-8.82,.42-13.19,.07,3.69-2.64,7.54-4.76,12.12-2.26,1.85,1.02,3.25-.52,4.89-.38Z"/><path class="cls-4" d="M91.33,79.57c3.43-3.74,7.97-2.39,12.17-2.65-3.68,2.62-7.91,2.71-12.17,2.65Z"/><path class="cls-4" d="M88.73,80.87c.51-1.18,1.48-1.45,2.64-1.33-.48,1.24-1.44,1.52-2.64,1.33Z"/><path class="cls-6" d="M34.92,626.87c-1.14,1.53,.29,4.75-2.8,4.38-2.53-.3-5.67-1.25-6.13-3.98-.47-2.81,3.09-3.62,4.89-4.21,2-.65,3.61,1.61,4.04,3.81Z"/><path class="cls-4" d="M73.05,238.77c-2.17,.39-4.56-.29-6.49,1.3,1.15-5.47,3.76-3.7,6.49-1.3Z"/><path class="cls-4" d="M78.28,245.29c-1.22,.23-2.19-.05-2.65-1.34,1.18-.15,2.13,.17,2.65,1.34Z"/><path class="cls-4" d="M75.67,243.99c-1.16-.53-1.46-1.49-1.34-2.66,1.33,.44,1.42,1.5,1.34,2.66Z"/><path class="cls-4" d="M74.36,241.37c-1.16-.51-1.37-1.5-1.33-2.63,1.38,.4,1.36,1.51,1.33,2.63Z"/><path class="cls-4" d="M56.11,423.92c-3.45-.82-6.88-1.71-10.34-2.45-2.26-.48-4.01-1.32-4.07-3.98,3.63,1.86,7.3,3.66,11.47,3.86,1.77,.08,2.89,.65,2.94,2.57Z"/><path class="cls-4" d="M33.97,417.5c-1.8,2.79,4.53,7.93-2.64,9.18,2.78-2.51-1.17-6.96,2.64-9.18Z"/><path class="cls-4" d="M44.37,380.91c1.89,1.57,2.9,5.72,6.52,2.21,.05,3.16-2.12,3.41-4.33,2.96-2.97-.61-2.12-3.16-2.19-5.17Z"/><path class="cls-4" d="M40.43,413.63c-2.53-.71-3.8,1.07-5.19,2.61-.22-2.06,0-4.05,2.23-4.84,1.79-.64,2.89,.26,2.96,2.22Z"/><path class="cls-4" d="M41.74,417.54c-1.45-.98-1.52-2.43-1.34-3.96,1.72,.89,1.43,2.46,1.34,3.96Z"/><path class="cls-4" d="M31.35,426.66c-.24,1.52-1.44,2.06-2.63,2.62-.12-1.88,.85-2.65,2.63-2.62Z"/><path class="cls-4" d="M41.1,379.61c1.42-.34,2.55,.03,3.31,1.34-1.38,.23-2.38-.45-3.31-1.34Z"/><path class="cls-4" d="M35.28,416.19c-.14,.75-.46,1.33-1.34,1.35,.45-.45,.89-.9,1.34-1.35Z"/><path class="cls-4" d="M50.77,451.52c-4.91,1.18-9.92,3.34-14.23-1.44,4.77,.22,9.6-.19,14.23,1.44Z"/><path class="cls-4" d="M36.57,450.11c-.44-.44-.88-.89-1.32-1.33,.91-.02,1.21,.56,1.32,1.33Z"/><path class="cls-4" d="M58.71,357.51c4.23-1.65,8.33-4.63,13.05-1.3-4.35,.43-8.7,.87-13.05,1.3Z"/><path class="cls-4" d="M52.15,354.88c2.74-.49,3.89,3.03,6.6,2.62-3.99,3.64-4.95-.35-6.6-2.62Z"/><path class="cls-4" d="M70.53,317.02c-2.81,1.75-.01,7.32-5.12,7.49,1.93-2.35-.79-7.87,5.12-7.49Z"/><path class="cls-4" d="M75.67,318.37c-1.15,.08-2.06-.33-2.66-1.35,1.16-.09,2.19,.08,2.66,1.35Z"/><path class="cls-4" d="M73.08,317.07c-.88,0-1.77,0-2.65,.01,.88-1.56,1.76-1.71,2.65-.01Z"/><path class="cls-4" d="M61.27,334.01c-.41,.65-.83,1.3-1.24,1.96,.05-.88,.31-1.63,1.24-1.96Z"/><path class="cls-4" d="M70.4,339.2c2.44-1.32,4.89-2.55,7.76-1.29-2.29,2.24-5.15,1-7.76,1.29Z"/><path class="cls-4" d="M61.31,340.46c1.75,0,3.51,0,5.26,0-1.75,2.26-3.51,1.84-5.26,0Z"/><path class="cls-4" d="M66.48,340.51c1.07-1.25,2.51-1.37,4-1.36-.86,1.86-2.52,1.33-4,1.36Z"/><path class="cls-2" d="M25.93,570.05c-.81-.07-1.63-.14-2.44-.22,.12-.24,.21-.66,.37-.69,.86-.17,1.63,.02,2.07,.89,0,0,0,.02,0,.02Z"/></g></svg>