<?xml version="1.0" encoding="UTF-8"?><svg id="Capa_2" xmlns="http://www.w3.org/2000/svg" viewBox="0 0 37.08 36.92"><defs><style>.cls-1{fill:#72a598;}.cls-2{fill:#c2e0db;}</style></defs><g id="Capa_1-2"><path class="cls-1" d="M0,25.14s.04-.04,.04-.04C.81,16.08,4.11,7.89,8.31,0c.93,.14,1.85,.29,2.78,.43l-.04-.02c1.65,2.27,2.61,6.26,6.6,2.62l-.04,.02c4.35-.43,8.7-.87,13.05-1.3l-.05-.02c.71,3.7,3.53,3.91,6.47,3.91-3.92,4.56-5.35,9.46-2.8,15.32,2.71,6.23,.26,10.51-5.67,13.28-1.91,.89-3.44,2.62-5.75,2.68-3.73-3.76-8.06-6.55-13.08-8.27-3.62,3.51-4.63-.64-6.52-2.21,0,0,.03,.04,.03,.04-.75-1.31-1.88-1.68-3.31-1.34Z"/><path class="cls-2" d="M3.27,26.44c1.89,1.57,2.9,5.72,6.52,2.21,.05,3.16-2.12,3.41-4.33,2.96-2.97-.61-2.12-3.16-2.19-5.17Z"/></g></svg>