<?xml version="1.0" encoding="UTF-8"?><svg id="Capa_2" xmlns="http://www.w3.org/2000/svg" viewBox="0 0 34.97 27.33"><defs><style>.cls-1{fill:#72a598;}.cls-2{fill:#c2e0db;}</style></defs><g id="Capa_1-2"><path class="cls-1" d="M29.77,26.45c-.54-2.99-3.78-3.44-5.23-5.57-2.87-1.26-5.32-.03-7.76,1.29,0,0,.08-.05,.08-.05-1.49,0-2.94,.12-4,1.36,0,0,.1-.06,.1-.06-1.76,0-3.51,0-5.26,0,0,0,.06,.03,.06,.03-.69-1.36-1.66-2.63-1.25-4.31,0,0-.1-.21-.1-.21,.41-.65,.83-1.3,1.24-1.96-1.29-4.33,3.19-6.15,4.14-9.5,5.11-.17,2.32-5.74,5.12-7.49,0,0-.09,.06-.09,.06,.88,0,1.77,0,2.65-.01,0,0-.07-.05-.07-.05,.6,1.02,1.51,1.42,2.66,1.35,0,0-.04-.02-.04-.02,1.17,3.41,4.36,1.75,6.54,2.61,.62,1.35,1.06,2.82,1.89,4.03,1.16,1.68,4.97,.45,4.48,4.21-.6,4.64-.63,9.36-1.46,13.95-.32,1.75-2.33,1.34-3.69,.33Z"/><path class="cls-2" d="M6.5,19.16c-.41,1.68,.55,2.95,1.25,4.31-2.58-.39-5.15-.78-7.73-1.17-.12-1.15,.25-2.08,1.23-2.72,1.88,1.44,3.61,1.08,5.25-.42Z"/><path class="cls-2" d="M7.69,23.44c1.75,0,3.51,0,5.26,0-1.75,2.26-3.51,1.84-5.26,0Z"/></g></svg>