<?xml version="1.0" encoding="UTF-8"?><svg id="Capa_2" xmlns="http://www.w3.org/2000/svg" viewBox="0 0 33.78 22.2"><defs><style>.cls-1{fill:#79d2c0;}.cls-2{fill:#c2e0db;}</style></defs><g id="Capa_1-2"><path class="cls-1" d="M33.78,5.57c-1.3,4.21-2.6,8.42-3.9,12.63-2.55,3.65-5.19-.68-7.78,.09,0,0,.05,.02,.05,.02-4.73-3.33-8.82-.35-13.05,1.3,0,0,.04-.02,.04-.02-2.71,.41-3.86-3.1-6.6-2.62,0,0,.04,.02,.04,.02-.47-1.18-1.47-1.37-2.57-1.39C-.11,10.46,2.62,6.13,4.03,1.41c2.58,.39,5.15,.78,7.73,1.17l-.06-.03c1.76,1.83,3.51,2.25,5.26,0l-.1,.06c1.48-.03,3.15,.5,4-1.36l-.08,.05c2.61-.29,5.48,.95,7.76-1.29,1.46,2.13,4.69,2.58,5.23,5.57Z"/><path class="cls-2" d="M22.1,18.28c2.59-.76,5.23,3.56,7.78-.09,.1,1.51,.12,2.99-1.31,4-2.94,0-5.76-.22-6.47-3.91Z"/></g></svg>