<?xml version="1.0" encoding="UTF-8"?><svg id="Capa_2" xmlns="http://www.w3.org/2000/svg" viewBox="0 0 37.94 58.53"><defs><style>.cls-1{fill:#79d2c0;}.cls-2{fill:#c2e0db;}</style></defs><g id="Capa_1-2"><path class="cls-1" d="M37.94,44.27c-3.7,1.56-4.74,5.62-7.57,8-4.19,.25-8.74-1.1-12.17,2.65,0,0,.04-.02,.04-.02-1.16-.12-2.13,.15-2.64,1.33,0,0,.03,0,.03,0-4.16-4.64-8.51-.62-12.78-.29,.99-8.83-2.55-17.45,.48-26.71,1.71-5.22-1.37-12.1-2.66-18.15C.27,9.15-.15,7.33,.05,5.39c6.15-.9,12.42-2.82,18.49-.92,5.01,1.57,7.25-.26,8.8-4.47,3.1,2.96,6.2,5.92,9.3,8.89,.47,.45,1.35,1.26,1.29,1.35-3.34,4.61-.49,10.25-2.37,14.85-1.63,3.98-3.61,7.29,.36,10.88,2.51,2.26,.16,5.82,2.02,8.3Z"/><path class="cls-2" d="M2.85,55.93c4.27-.33,8.62-4.36,12.78,.29-.31,1.36-1.89,2.79-2.42,2.16-3.39-4.09-6.88-.57-10.28-.5-.03-.65-.06-1.3-.08-1.94Z"/></g></svg>