<?xml version="1.0" encoding="UTF-8"?><svg id="Capa_2" xmlns="http://www.w3.org/2000/svg" viewBox="0 0 30.5 37.7"><defs><style>.cls-1{fill:#79d2c0;}.cls-2{fill:#c2e0db;}</style></defs><g id="Capa_1-2"><path class="cls-1" d="M0,36.79c.47-1.88,1.58-3.86,1.29-5.62C-.25,21.72,2.33,12.94,5.14,4.16c2.07-2.37,6.84,.62,7.79-3.95h0c4.02-1.22,6.56,3.21,10.38,2.72,2.14,3.92,4.23,7.87,6.44,11.75,1.51,2.65,.71,3.94-2.17,4.25-2.28-.13-4.55-.26-6.82-.39l.04,.02c-.47-1.26-1.5-1.43-2.66-1.35l.07,.05c-.89-1.7-1.78-1.55-2.65,.01l.09-.06c-5.91-.38-3.19,5.14-5.12,7.49-.95,3.36-5.43,5.17-4.14,9.51-.93,.33-1.19,1.07-1.24,1.96l.1,.21c-1.64,1.5-3.37,1.86-5.25,.42Z"/><path class="cls-2" d="M15.65,17.22c-2.81,1.75-.01,7.32-5.12,7.49,1.93-2.35-.79-7.87,5.12-7.49Z"/></g></svg>