<?xml version="1.0" encoding="UTF-8"?><svg id="Capa_2" xmlns="http://www.w3.org/2000/svg" viewBox="0 0 293.73 419.62"><defs><style>.cls-1{fill:#72a598;stroke:#000;stroke-miterlimit:10;}</style></defs><g id="Capa_1-2"><path class="cls-1" d="M6.33,419.12c-4.17-20.66-1.25-39.93,10.96-57.51,5.23-7.54,6.61-16.01,5.26-25.08-5.17-34.77-5.27-69.83-5.47-104.86-.05-8.33-3.06-14.29-8.63-20.82-13.33-15.63-9-19.71,6.38-33.15,8.74-7.64,10.37-25.09,12.2-38.54,2.11-15.52,.91-31.48,1.15-47.26,.49-2.12,.99-4.23,1.49-6.34-.23-9.95-.46-19.89-.69-29.84,13.79-.28,27.96-14.56,41.68,2.04,2.12,2.57,8.54-3.26,9.8-8.76h-.11c4.86,.78,8.76-.37,10.71-5.39l-.17,.09c17.28,.24,34.43-.11,49.35-10.74,11.48-9.62,15.7-26.11,30.68-32.42,15.84,6.43,24.96,16.77,17.92,34.58-3.64,9.22-1.3,16.91,2.14,25.23,8.04,19.46,17.38,38.62,23.01,58.79,8.75,31.35,23.55,50.46,60.15,46.22,16.84-1.95,22.91,9.96,16.73,26.36-7.42,19.69-14.94,39.34-21.95,59.17-3.25,9.19-9.55,13.61-18.45,16.82-19.79,7.15-39.39,14.91-58.69,23.29-21.32,9.26-28.5,30.76-13.85,48.05,12.4,14.62-1.01,17.24-7.16,23.98-9.45-.44-18.91-1.44-28.33-1.14-8.17,.26-18.25-3.73-23.77,5.26-8.21,13.38-15.15,27.55-22.62,41.38l.14-.11c-6.64-.57-12.3,5.65-19.81,1.53-18.54-10.16-34.16-1.56-49.12,9.16l.21-.11c-7.04,.04-14.09,.08-21.13,.12Z"/></g></svg>