<?xml version="1.0" encoding="UTF-8"?><svg id="Capa_2" xmlns="http://www.w3.org/2000/svg" viewBox="0 0 470.27 417.07"><defs><style>.cls-1{fill:#72a598;stroke:#000;stroke-miterlimit:10;}</style></defs><g id="Capa_1-2"><path class="cls-1" d="M341.43,114.76c19.07,27.19,42.4,34.25,71.27,15.06,60.09,9.19,46.2,62.51,55.38,98.96,9.95,39.52-26.14,43.77-53.22,48.69-40.99,7.44-49.69,31.7-48.63,70.06,.64,23.11,21.2,58.91-23.33,68.81-19.96-7.54-39.94-27.78-59.82,.13-50.56-17.79-103.37-13.38-155.5-15.75l.26,.3c-1.22-8.43-4.55-14.76-14.46-14.54l.19,.08c-15.33-50.36-50.62,5.02-71.94-13.59C27.97,321.16,14.3,269.35,.63,217.54c26.42-3.1,46.86-11.8,41.65-44.5,0,0-.29,.34-.29,.34,13.01-6.12,26.19-12.07,28.8-28.65,0,0-.27,.19-.27,.19,78.35-13.68,9.14-69.77,28.84-100.31,0,0-.35,.44-.35,.44,9.66-.2,13.09-6.57,14.67-14.78,0,0-.45,.57-.45,.57,15.23-16.86,29.15-36.33,56.78-28.57,0,0-.26-.46-.26-.46-2.01,16.76-1.22,32.57,14.62,43.3,0,0-.44-.61-.44-.61,.68,29,19.8,38.2,44.47,43.48,37.86,8.1,75.38,17.78,113.05,26.8Z"/></g></svg>