<?xml version="1.0" encoding="UTF-8"?><svg id="Capa_2" xmlns="http://www.w3.org/2000/svg" viewBox="0 0 269.89 429.19"><defs><style>.cls-1{fill:#79d2c0;stroke:#000;stroke-miterlimit:10;}</style></defs><g id="Capa_1-2"><path class="cls-1" d="M255.21,2.07c4.04,19.09,8.41,38.12,11.95,57.3,1.35,7.33,3.85,19.74,.67,21.77-27.89,17.87-12.93,38.72-5.73,59.04,7.94,22.41,7.69,39.31-23.23,37.68-13.59-.72-15.95,7.97-15.63,19.04,.35,11.95-1.02,24.11,.69,35.83,4.51,30.96-2.7,54.88-33.47,68.97-18.95,8.67-21.14,28.69-26.99,46.11-6.99,20.81-6.27,46.28-33.72,55.43-6.67,2.22-4.16,11.51-4.55,17.86-7.95,5.41-16.9,6.92-26.29,6.73l.14,.08c-2.61-5.87-7.38-7.47-13.32-6.73l.18,.17c.42-5.8-.07-11.14-6.74-13.37l.15,.21c.15-5.61,.28-11.2-6.68-13.22l.08,.1c-13.73-12.07-26.83-20.98-32.63,6.54l.14-.1c-12.82-2.51-25.63-5.02-38.45-7.52,0,0-.29-.09-.3-.08-.34-4.06-.66-8.13-.99-12.19,19.73-59.57,39.24-118.17,27.64-183.63-7.81-44.07,20.2-83.3,31.62-124.85,7.67-6.57,20.07-3.82,26.25-13.32,0,0-.25,.13-.25,.13,22,1.73,43.48-12.73,66.36-.37,7.51,4.06,16.24-3.21,19.15-12.89,0,0-.18,.13-.18,.13,13.93,1.94,20.07-9.16,23.09-18.18C205.05-3.66,229.85-.65,255.21,2.07Z"/></g></svg>