<?xml version="1.0" encoding="UTF-8"?><svg id="Capa_2" xmlns="http://www.w3.org/2000/svg" viewBox="0 0 219.99 395.46"><defs><style>.cls-1{fill:#c2e0db;}.cls-1,.cls-2{stroke:#000;stroke-miterlimit:10;}.cls-2{fill:#80b8cb;}</style></defs><g id="Capa_1-2"><path class="cls-2" d="M116.88,394.93c-10.82-13.45-24.46-23.23-39.9-30.68-.14-13.04-4.62-25.33-11.46-35.55-8.09-12.1-.68-20.4,3.06-30.08-16.87,0-12.1-9.1-10.54-20.15,1.69-12,8.92-18.58,16.37-25.24,9.42-8.42,5.41-14.24-.37-22.43-6.62-9.39-10.59-8.83-18.46-1.2-10.41,10.09-13.51-3.22-17.92-8.23-9.58-10.88-17.32-18.42-19.58,3.92-.56,5.56-3.44,7.8-8.6,7.8-7.08,0-7.63-4.96-8.6-10.45-2.72-15.52,9.32-22.12,17.77-31.06,7.76-8.21,18.94-12.41,10.64-29.91-7.74-16.31,11.57-10.63,19.83-13.35,2.57,2.55,4.72,6.51,7.78,7.43,25.39,7.63,35.57,21.6,31.5,45.29,16.93-10.93,20.33-25.59,14.52-43.36-.12-2.72-.24-5.44-.35-8.16-1.07-1.71-2.15-3.42-3.22-5.13,15.51-18.29,21.25-38.98,14.04-62.18-4.38-14.08,7.06-18.47,13.13-27.23,7.03-10.14-19.17-12.52-11.3-23.71,6.89-9.79,12.91-18.66,13.18-30.72,21.98-.93,37.92,12.73,55.27,22.99,2.12,2.02,6.31,4.37,6.05,6.02-3.19,20.14,5.15,29.66,25.37,30.8,5.47,.31,4.59,6.76,3.78,11.11-1.04,5.57-3.81,9.82-10.27,9.67-6.7-.16-13.41-.36-20.07-.99-5.59-.53-12.73-4.62-13.99,4.82-.97,7.28,2.24,13.17,10.67,14.28,3.69,.49,7.55,.42,11.06,1.49,17.22,5.24,20.8,20.18,7.28,32.02-7.48,6.55-8.36,11.58-6.23,22.35,4.44,22.5,.13,45.89-3.33,68.67-3.78,24.88-20.75,44.22-29.56,67.04-1.32,3.43-3.94,8.65-2.56,10.46,13.33,17.54,2.71,33.82-.44,51.21-4.03,22.22-19.34,39.04-44.56,42.44Zm3.47-87.09c-1.46-7.54-7.01-15.29-13.87-13.06-6.18,2.01-18.41,4.8-16.79,14.43,1.57,9.36,12.35,12.61,21.04,13.65,10.6,1.27,5.7-9.78,9.61-15.02Z"/><path class="cls-1" d="M102.93,157.68c5.82,17.77,2.41,32.43-14.52,43.36,4.07-23.69-6.1-37.66-31.5-45.29-3.06-.92-5.21-4.87-7.78-7.43-.82-2.05-1.64-4.1-2.46-6.15,25.53-6.88,7.18-28.62,13.74-42.53,5.79-12.28-5.96-22.26-15.81-29.55-6.05-9.57,23.39,.7,7.95-15.27-2.82-2.91,29.98-30.69,35.5-28.8,4.18,1.43,13.37,4.47,7.76,9.78-22.6,21.37-3.03,40.71,1.31,60.67,1.73,7.97,3.6,14.91-7.63,16.34-1.52-2.98-4.15-3.64-7.11-3.05-.56,.11-.86,1.55-1.27,2.37,2.79,.25,5.58,.5,8.37,.74,.99,15.99-16.56,37.54,13.44,44.82Z"/><path class="cls-2" d="M54.92,355.24c-13.56-.03-27.59-4.39-40.2,4.34-6.49-23.1,1.08-43.17,13.39-62.22,3.71-.05,7.41-.11,11.12-.16-4.26,21.91,25.1,34.74,15.69,58.04Z"/></g></svg>