<?xml version="1.0" encoding="UTF-8"?><svg id="Capa_2" xmlns="http://www.w3.org/2000/svg" viewBox="0 0 346.48 418.35"><defs><style>.cls-1{fill:#79d2c0;stroke:#000;stroke-miterlimit:10;}</style></defs><g id="Capa_1-2"><path class="cls-1" d="M345.91,98.45c.77,81.97-11.55,163.93-.27,245.89,1.86,13.52-3.93,24.29-10.8,34.92-21.88,14.54-39.55,9.19-54.01-11.41-.4-15.95-9.69-20.62-24.34-21.31-34.55-1.62-64.92-16.56-95.01-31.94l.33,.46c.78-12.45,3.15-25.43-11.07-32.81l.2,.35c-.64-16.23-9.71-23.7-24.55-18.42-18.39,6.54-20.29,22.99-18.47,40.07l.34-.43c-3.71,3.73-7.41,7.47-11.12,11.2l.27-.34c-31.53,18.37,1.2,55.21-21.85,76.01l.2-.14c-14.74-.27-22.85,6.13-21.82,21.71l.22-.26c-8.05-.52-16.5,13.85-24.17-.66,7.68-39.72,7.94-77.62-19.67-111.7C-2.85,283.39,1.92,262.07,.7,242.56c-1.91-30.58,9.86-38.88,38.15-27.14,40.99,17.01,54.98,1.2,60.26-41.59,7.51-60.76,15.27-123.35,57.75-173.27-.01,0-.36,.3-.36,.3,7.65,7.33,15.98,12.99,27.38,11.09l-.29-.31c.56,16.7-6.47,37.83,18.11,42.84,18.27,3.72,36.31,1.68,35.86-24.54,41.56,14.22,77.46,37.39,108.35,68.5Z"/></g></svg>