<?xml version="1.0" encoding="UTF-8"?><svg id="Capa_2" xmlns="http://www.w3.org/2000/svg" viewBox="0 0 201.89 408.63"><defs><style>.cls-1{fill:#72a598;stroke:#000;stroke-miterlimit:10;}</style></defs><g id="Capa_1-2"><path class="cls-1" d="M179.23,50.37c13.47,28.41,12.36,60.13,20.41,89.76,2.33,8.58,3.76,18.36-5.24,22.49-50.96,23.34-32.61,89.58-75.01,120.28-9.94,7.2-10.44,40.03,4.5,55.08,20.99,21.14,15.65,40.1,3.65,61.27-16.93-14.17-33.85-29.26-50.99-.24v-.02c-18.88-2.47-35.58,17.01-55.34,5.47-6.08-57.34-9.57-115.12-18.97-171.91-9.16-55.36,19.95-97.83,40.75-143.06,10.36-22.52,13.27-41.91-.52-62.76,10.86-2.31,25.31,.9,26.08-16.94,0,0-.18,.13-.18,.13C80.9-.41,96.38,3.97,110.47,1.45c0,0-.11-.13-.11-.13-.3,7.29,1.07,13.73,8.61,17.06,0,0-.19-.28-.19-.28-.78,7.6,1.18,13.83,8.69,17.25,0,0-.23-.22-.23-.22,2.96,8.38,9.24,10.18,17.19,8.68,0,0-.18-.11-.18-.11,8.9,16.66,22.87,6.73,34.96,6.66Z"/></g></svg>