<?xml version="1.0" encoding="UTF-8"?><svg id="Capa_2" xmlns="http://www.w3.org/2000/svg" viewBox="0 0 222.19 430.78"><defs><style>.cls-1{fill:#72a598;stroke:#000;stroke-miterlimit:10;}</style></defs><g id="Capa_1-2"><path class="cls-1" d="M208.13,430.12c-30.26-17.89-58.05-41.71-96.38-40.09-22.85-5.78-27.24-19.84-12.9-36.86,24.64-29.25,31.12-61.51,22.92-98.01-8.1-36.08,19.11-50.21,48.54-69.13-26.14-6.13-43.15-15.42-22.69-40.2,7.48-9.06,1.11-17.29-5.96-23.6-8.93-7.97-16.49-3.31-23.66,3.55-5.47,5.23-10.71,13.38-17.08,14.52-29.45,5.28-33.03,19.82-19.06,43.64,8.28,14.12,11.36,26.66-4.63,40.43-20.65,17.78-11.25,45.81-4.76,63.28,12.5,33.65-17.4,38.42-29.35,53.52-5.42,6.85-24.14-.25-35.26-8.68-11.34-8.6-7.33-17.36-2.88-27.34,18.49-41.49-1.27-88.83,18.62-129.62,12.47-25.56-3.23-44.49-7.25-66.94-6.07-33.94-.57-69.95,0-105.09,19.63-7.85,36.9,5.52,55.7,6.44,13.32,.65,27.51,9.97,35.5-8.92l-.26,.12c30.43,3.37,60.85,6.74,91.28,10.11,.69,40.21,1.35,80.41,2.09,120.62,.24,12.85-2.56,26.51,6.14,37.66,11.65,14.92,7.1,24.03-7.31,34.49-16.34,11.86-27.12,121.18-11.49,126.7,39.27,13.87,2.01,57.28,32.68,73.18,4.37,2.27-6.54,17.85-12.55,26.22Z"/></g></svg>