<?xml version="1.0" encoding="UTF-8"?><svg id="Capa_2" xmlns="http://www.w3.org/2000/svg" viewBox="0 0 336.61 402.42"><defs><style>.cls-1{fill:#72a598;}.cls-1,.cls-2,.cls-3,.cls-4{stroke:#000;stroke-miterlimit:10;}.cls-2{fill:#c2e0db;}.cls-3{fill:#8bb7b3;}.cls-4{fill:#fbfbfb;}</style></defs><g id="Capa_1-2"><path class="cls-1" d="M263.62,388.05c.32,3.53,.64,7.05,1.21,13.3-13.55-10.16-28.14-16.61-28.65-33.84-.63-21.43-11.43-15.18-23.33-9.76-.04,6.02,15.06,5.74,6.67,13.76-4.83,4.62-11.75,2.64-16.07-2.73-5.77-7.17-14.33-7.6-23.5-9.36,8.59-11.37,17.47-.06,27.55-3.25-4.26-9.73-12.33-10.04-20.13-10.66-5.95-.48-12.48,.56-17.72-1.59-5.17-2.12-9.21-7.69-.11-11.17,8.21-3.14,18.27-6.02,11.35-17.13-6.68-10.72-14.8-.92-21.95,1.7-3.21,1.18-5.82,3.99-8.84,6.16-3.05-14.31-16.38-19.37-28.32-11.16-1.27,.87-3.55,2.53-3.83,2.25-9.36-9.13-24.54-13.51-25.41-29.51-.13-2.33,3.54-6-.51-7.05-29.48-7.62,1.03-9.98,1.51-15.33-7.41-9.81-25.35-6.03-28.51-21.37,7.41,2.33,14.83,4.66,22.24,6.98,10.3,9.42,23.67,11.39,36.39,14.86,3.94,1.07,7.32,.17,7.35-4.9,.02-2.53-1.31-5.72-3.92-4.61-14.2,6.03-18.66-10.66-29.47-12.19,1.82-5.64,7.59-6.9,11.42-10.31,5.32,.08,12.37-2,15.66,.62,13.6,10.86,21.39,.64,30.24-8.91-15.27,1.34-30.54,2.69-45.81,4.03-6.68,1.31-11.26-1.09-13.55-7.63-2.12-6.06-6.69-7.52-12.51-6.5-7.61-1.98-9.2-5.87-3.83-11.99q15.52-.87,12.53-15.88c-5.59,1.36-8.84,5.51-12.08,9.64-8.19-2.21-12.79-11.09-21.81-11.76l.1,.11c-.25-4.03-.49-8.05-.74-12.08-.21-.92-.13-1.81,.24-2.67,1.22,.17,2.44,.33,3.66,.5,5.97,4.96,3.59-2.63,5.54-3.69,.99-.36,1.77-.98,2.34-1.87,4.26-4.91,9.71-9.46,6.64-16.91-.17-.42,2.08-16.54-9.66-3.47-8.72,9.71-19.76-.82-23.14-13.48,2.31-4.13,8.48-5.59,7.99-11.64l-.03,.02c4.83-9.61,13.69-21.06-8.39-18.39-3.98-4.56-8.84-8.5-10.42-14.76,.82-3.03,12.09-4.41,1.61-9.14-5.42-2.45-11.14-5.22-16.91-5.73-11.97-1.04-14.43-9.32-14.84-18.39-.51-11.33,9.45-5.3,14.48-7.59,1.97-.9,3.73-2.26,8.25-5.06-9.31-2.66-15.86-3.46-21.12-10.66-7-9.58,.53-15.49,.76-22.98C14.47-2.16,25.85,1.38,36.86,1.4c6.34,1.52,7.69,15.29,17.91,7.31,12.53,6.04,23.6,13.98,32.38,24.9,3.43,26.81-4.36,55.07,12.98,80.23,6.05,8.78,9.2,11.69,19.18,6.59,16.36-8.36,21.64-4.26,20.6,14.56-.23,4.18-1.59,8.3-2.52,12.43-5.58,24.75,8.85,42.75,34.76,43.35,16.94,.39,33.9,.36,50.82,1.28,13.99,.76,22.76,7.42,24.12,22.74,.83,9.26,7.97,16.32,16.72,15.47,12.47-1.22,12.29,4.97,12.27,13.66-.08,32.68,.57,65.37,.17,98.05-.13,10.8,1.88,17.01,14.39,17.12,10.82,.09,21.64,2.11,32.42,3.58,6.61,.9,14.31,1.64,12.87,11.27-1.32,8.83-8,6.78-14.16,6.07-8.38-.96-16.96-.51-22.53-8.9-2.37-3.57-6.14-3.4-9.45-.68-2.45,2.01-1.37,4.01,.07,6.22,3.07,4.72,10.98,10.21,4.98,15.07-6.09,4.93-14.95,2.57-21.51-3.28-1.78-1.59-3.95-2.75-5.95-4.1-1.44-1.39-2.12-5.07-4.87-2.67-.85,.74,.66,4.18,1.09,6.38Zm-73.02-56.25c31.15-6.13,5.97-32.47,21.57-48.21-6.92,39.93,18.76,41.3,45.09,44.1-3.37-8.25-10.28-9.82-15.88-13.03-12.25-7.04-13.19-17.67-2.2-27.01,3.21-2.73,6.94-4.85,10.32-7.39,2.35-1.77,5.26-3.63,3.46-7.22-1.42-2.82-3.79-4.61-7.34-3.91-4.74,.93-9.82,.99-14.21,2.77-13.24,5.37-17.5-2.68-16.38-12.69,.94-8.42,.84-20.54,15.71-19.8,6.11,.3,8.39-5.77,7.56-10.19-.97-5.17-5.29-6.84-11.29-4.73-16.78,5.91-25.58,15.56-28.07,34.88-4.12,31.97,1.65,45.99-41.64,29.51-.8-.3-2.08,.68-3.14,1.07q3.02,11.96,15.16,13.91c21.75,3.48,25.12,7.73,21.26,27.95Zm-51.12-64.5c8.46-4.84,17.63-2.58,25.78-4.93,7.83-2.26,16.46-4.91,19.13-14.45,1.52-5.42-1.04-12.08-6.12-8.09-12.34,9.7-27.6,15.17-38.79,27.47Zm-13.8-60.3c4.3-8.62-3.07-14.63-2.21-21.82,.48-4.02,1.26-8.82-5.32-8.94-2.35-.04-5.22-.55-5.71,2.54-.58,3.65-4.71,8.05,1.02,10.96,6.55,3.33,6.74,10.88,12.22,17.27Zm-54.22-27.52c2.8-.33,5.89,.33,5.9-2.76,0-1.88-1.94-3.75-3.01-5.63-1.96,2.02-3.92,4.04-5.89,6.05,1.12,.87,2.24,1.75,3,2.34Zm34.78-7.2c-.83,.62-1.59,1.2-2.36,1.78,.41,.4,.89,1.19,1.23,1.14,1.02-.15,1.99-.64,2.98-.99-.62-.64-1.23-1.29-1.85-1.93Z"/><path class="cls-1" d="M21.29,102.67c-7.56-2.26-19.64,3.47-17.77-13.61,2.26-20.66,12.48-8.94,20.75-6.79,3.27,7.42-3.6,13.36-2.98,20.4Z"/><path class="cls-2" d="M87.28,248.3c-7.41-2.33-14.82-4.65-22.24-6.98,0,0,.19,.07,.19,.07-.14-1.53-.27-3.07-.41-4.6,.12-1.76,.39-3.53,.32-5.29-.21-5.27-7.22-11.71,.97-15.51,9.65-4.48,7.84,7.58,12.77,10.33,2.78,6.07,5.55,12.13,8.33,18.2,.03,1.26,.05,2.53,.08,3.79Z"/><path class="cls-3" d="M58.24,161.08c-10.13-.54-17.8,6.06-26.89,9.91-4.81-11.64,.05-16.86,10.4-20.11,10.18-3.2,14.77,.75,16.31,10.34,0,0,.17-.14,.17-.14Z"/><path class="cls-1" d="M57.87,182.79c6.32,9.53-1.49,16.73-4.72,26.97-5.66-10.67-17.86-16.92-10.06-30.67,4.96,1.27,9.92,2.54,14.88,3.81l-.1-.11Z"/><path class="cls-2" d="M83.07,212.79c5.83-1.02,10.39,.44,12.51,6.5,2.29,6.54,6.87,8.94,13.55,7.63-.03,1.42-.06,2.83-.09,4.25-3.83,3.41-9.61,4.66-11.42,10.31-.76,.11-1.53,.16-2.3,.15-3.99-8.02,1.97-22.91-15.12-21.89,.95-2.31,1.91-4.63,2.86-6.94Z"/><path class="cls-2" d="M21.29,102.67c-.62-7.04,6.25-12.98,2.98-20.4,2.57,.74,5.15,1.47,7.73,2.2,1.58,6.26,6.44,10.2,10.44,14.76-2.7-.17-4.79,.69-5.73,3.47-5.14-.01-10.27-.02-15.41-.03Z"/><path class="cls-1" d="M80.21,219.72c17.08-1.02,11.12,13.87,15.11,21.89-1.74,3.68-4.71,3.91-8.12,2.9-2.78-6.07-5.55-12.13-8.33-18.2,.44-2.2,.89-4.4,1.33-6.59Z"/><path class="cls-3" d="M79.68,194.55c3.25-4.14,6.49-8.29,12.08-9.64q3,15.02-12.53,15.88c.15-2.08,.29-4.16,.44-6.24Z"/><path class="cls-3" d="M36.71,102.7c.94-2.77,3.03-3.64,5.73-3.47,22.06-2.66,13.21,8.78,8.38,18.39-1.04-4.24,2.71-10.83-3.5-12.27-4.75-1.1-3.21,6.98-7.34,8.6-7.14-1.99,1.98-8.71-3.28-11.25Z"/><path class="cls-1" d="M39.99,113.95c4.13-1.62,2.59-9.7,7.34-8.6,6.21,1.44,2.46,8.03,3.5,12.27,0,0,.03-.02,.02-.02-2.46,.02-4.93,.05-7.39,.07-1.16-1.24-2.31-2.48-3.47-3.72Z"/><path class="cls-3" d="M57.97,182.9c-4.96-1.27-9.92-2.54-14.88-3.81,4.71-2.75,9.43-5.51,14.14-8.27,.24,4.02,.49,8.05,.74,12.08Z"/><path class="cls-3" d="M43.45,117.67c2.46-.02,4.93-.05,7.39-.07,.49,6.04-5.68,7.51-7.99,11.64-4.88-4.12,.88-7.69,.6-11.57Z"/><path class="cls-1" d="M64.82,236.78c.14,1.53,.27,3.07,.41,4.6-3.21,.64-5.94-.58-5.49-3.84,.41-3.01,3.18-1.51,5.08-.76Z"/><path class="cls-3" d="M61.12,168.66c-1.22-.17-2.43-.33-3.66-.5,.25-2.36,.51-4.72,.77-7.08,0,0-.17,.14-.17,.14,1.95,2.1,3.83,4.22,3.06,7.44Z"/><path class="cls-3" d="M69.01,163.09c-.57,.89-1.35,1.51-2.34,1.87-.05-1.67,.56-2.51,2.34-1.87Z"/><path class="cls-4" d="M190.6,331.79c3.86-20.23,.48-24.47-21.26-27.95q-12.14-1.94-15.16-13.91c1.06-.39,2.34-1.37,3.14-1.06,43.28,16.49,37.52,2.46,41.64-29.51,2.49-19.33,11.29-28.97,28.07-34.88,6-2.11,10.32-.44,11.29,4.73,.83,4.42-1.45,10.49-7.56,10.19-14.87-.74-14.78,11.38-15.71,19.8-1.12,10.01,3.14,18.07,16.38,12.69,4.39-1.78,9.46-1.84,14.21-2.77,3.56-.7,5.92,1.09,7.34,3.91,1.81,3.59-1.1,5.45-3.46,7.22-3.38,2.54-7.11,4.66-10.32,7.39-10.99,9.35-10.05,19.97,2.2,27.01,5.59,3.21,12.51,4.79,15.88,13.03-26.33-2.8-52-4.17-45.09-44.1-15.61,15.74,9.58,42.08-21.57,48.21Z"/><path class="cls-4" d="M139.48,267.29c11.2-12.3,26.46-17.77,38.79-27.47,5.07-3.99,7.63,2.68,6.12,8.09-2.67,9.54-11.3,12.19-19.13,14.45-8.15,2.35-17.32,.09-25.78,4.93Z"/><path class="cls-4" d="M87.2,244.51c3.41,1.01,6.38,.78,8.12-2.9,.77,0,1.54-.04,2.3-.15,10.81,1.53,15.27,18.21,29.47,12.19,2.62-1.11,3.94,2.08,3.92,4.61-.04,5.07-3.41,5.97-7.35,4.9-12.72-3.46-26.09-5.44-36.39-14.86-.02-1.26-.05-2.53-.08-3.79Z"/><path class="cls-4" d="M109.05,231.16c.03-1.42,.06-2.83,.09-4.25,15.27-1.34,30.54-2.69,45.81-4.03-8.85,9.54-16.65,19.77-30.24,8.91-3.29-2.63-10.34-.54-15.66-.62Z"/><path class="cls-2" d="M125.68,206.99c-5.48-6.39-5.67-13.94-12.22-17.27-5.73-2.91-1.6-7.31-1.02-10.96,.49-3.09,3.36-2.58,5.71-2.54,6.58,.12,5.8,4.92,5.32,8.94-.86,7.19,6.52,13.2,2.21,21.82Z"/><path class="cls-3" d="M71.46,179.47c-.76-.59-1.88-1.47-3-2.34,1.96-2.02,3.92-4.04,5.89-6.05,1.07,1.88,3.01,3.76,3.01,5.63,0,3.09-3.1,2.44-5.9,2.76Z"/><path class="cls-4" d="M263.62,388.05c-.43-2.2-1.94-5.64-1.09-6.38,2.75-2.4,3.42,1.28,4.87,2.67-1.26,1.23-2.52,2.47-3.78,3.71Z"/><path class="cls-2" d="M106.24,172.28c.61,.64,1.23,1.28,1.85,1.93-.99,.35-1.96,.84-2.98,.99-.35,.05-.82-.74-1.23-1.14,.77-.58,1.53-1.15,2.36-1.78Z"/></g></svg>