<?xml version="1.0" encoding="UTF-8"?><svg id="Capa_2" xmlns="http://www.w3.org/2000/svg" viewBox="0 0 620.55 362.25"><defs><style>.cls-1{fill:#79d2c0;stroke:#000;stroke-miterlimit:10;}</style></defs><g id="Capa_1-2"><path class="cls-1" d="M620.04,102.88c-23.86,77.23-47.73,154.46-71.58,231.69-46.83,66.87-95.27-12.45-142.68,1.56,0,0,.94,.32,.93,.33-86.69-61.06-161.82-6.34-239.39,23.9,0,0,.69-.29,.69-.29-49.67,7.55-70.79-56.93-121.01-47.98,0,0,.66,.4,.66,.4-8.59-21.65-27.02-25.07-47.1-25.45C-1.43,192.71,48.6,113.11,74.37,26.64c47.25,7.14,94.51,14.28,141.77,21.42l-1.12-.49c32.21,33.64,64.41,41.3,96.56-.07l-1.81,1.06c27.14-.54,57.74,9.1,73.44-25.02l-1.53,.93c47.89-5.26,100.42,17.36,142.35-23.7,26.71,39,86.05,47.33,95.98,102.11Z"/></g></svg>