<?xml version="1.0" encoding="UTF-8"?><svg id="Capa_2" xmlns="http://www.w3.org/2000/svg" viewBox="0 0 279.2 413.26"><defs><style>.cls-1{fill:#79d2c0;stroke:#000;stroke-miterlimit:10;}</style></defs><g id="Capa_1-2"><path class="cls-1" d="M278.41,325.13c-27.06,11.39-34.68,41.19-55.45,58.57-30.72,1.87-63.99-8.03-89.13,19.4,0,0,.31-.17,.31-.17-8.52-.85-15.64,1.07-19.35,9.75,0,0,.2-.02,.21-.02-30.46-34.02-62.34-4.54-93.62-2.11,7.27-64.65-18.65-127.83,3.53-195.66,12.51-38.24-10.06-88.62-19.45-132.97C2.49,67.88-.61,54.57,.89,40.34c45.03-6.62,90.98-20.64,135.45-6.71,36.67,11.49,53.12-1.89,64.48-32.74,22.71,21.7,45.44,43.39,68.12,65.13,3.42,3.28,9.92,9.2,9.44,9.86-24.43,33.73-3.6,75.07-17.39,108.76-11.93,29.12-26.45,53.42,2.63,79.67,18.36,16.56,1.16,42.62,14.79,60.83Z"/></g></svg>