<?xml version="1.0" encoding="UTF-8"?><svg id="Capa_2" xmlns="http://www.w3.org/2000/svg" viewBox="0 0 332.09 410.19"><defs><style>.cls-1{fill:#79d2c0;stroke:#000;stroke-miterlimit:10;}</style></defs><g id="Capa_1-2"><path class="cls-1" d="M.56,399.8c5.05-20.38,17.1-41.9,13.99-60.95C-2.16,236.23,25.9,140.95,56.37,45.62c22.43-25.67,74.27,6.75,84.59-42.84l.02,.03c43.6-13.24,71.14,34.8,112.65,29.52,23.22,42.55,45.87,85.42,69.85,127.54,16.34,28.71,7.74,42.76-23.6,46.12-24.69-1.44-49.37-2.85-74.04-4.26l.42,.24c-5.15-13.73-16.31-15.56-28.88-14.61l.77,.53c-9.68-18.42-19.27-16.78-28.79,.13l1.02-.68c-64.16-4.12-34.62,55.83-55.56,81.26-10.28,36.43-58.97,56.13-44.94,103.16-10.06,3.54-12.95,11.64-13.46,21.23l1.1,2.23c-17.79,16.32-36.59,20.17-56.94,4.56Z"/></g></svg>